<?xml version="1.0" encoding="UTF-8" standalone="no"?>
<svg
   width="1989.599"
   zoomAndPan="magnify"
   viewBox="-184 -155 2222.806 816.4966"
   height="730.83337"
   preserveAspectRatio="xMidYMid"
   version="1.0"
   id="svg40"
   sodipodi:docname="logo-white.svg"
   inkscape:version="1.4.2 (f4327f4, 2025-05-13)"
   xmlns:inkscape="http://www.inkscape.org/namespaces/inkscape"
   xmlns:sodipodi="http://sodipodi.sourceforge.net/DTD/sodipodi-0.dtd"
   xmlns="http://www.w3.org/2000/svg"
   xmlns:svg="http://www.w3.org/2000/svg">
  <sodipodi:namedview
     id="namedview40"
     pagecolor="#ffffff"
     bordercolor="#000000"
     borderopacity="0.25"
     inkscape:showpageshadow="2"
     inkscape:pageopacity="0.0"
     inkscape:pagecheckerboard="0"
     inkscape:deskcolor="#d1d1d1"
     inkscape:zoom="0.9075"
     inkscape:cx="996.14325"
     inkscape:cy="453.44353"
     inkscape:window-width="3816"
     inkscape:window-height="2030"
     inkscape:window-x="0"
     inkscape:window-y="0"
     inkscape:window-maximized="0"
     inkscape:current-layer="svg40" />
  <defs
     id="defs2">
    <g
       id="g1" />
    <clipPath
       id="ca89423dd9">
      <path
         d="M 2,475.78906 H 624 V 1024 H 2 Z m 0,0"
         clip-rule="nonzero"
         id="path1" />
    </clipPath>
    <clipPath
       id="8389cd5e18">
      <path
         d="M 117,598.21484 H 510 V 964 H 117 Z m 0,0"
         clip-rule="nonzero"
         id="path2" />
    </clipPath>
  </defs>
  <g
     clip-path="url(#ca89423dd9)"
     id="g3"
     transform="matrix(1,0,0,0.93624878,-100.9784,-468.70024)"
     style="stroke-width:1.03349;fill:#ff6600">
    <path
       fill="#ff751f"
       d="M 278.39453,495.78516 8.121094,963.91406 c -0.875,1.51563 -1.648438,3.07813 -2.316406,4.69531 -0.667969,1.61329 -1.230469,3.26563 -1.683594,4.95313 -0.453125,1.6875 -0.792969,3.39844 -1.023438,5.13281 -0.226562,1.73047 -0.34375,3.47266 -0.34375,5.21875 0,1.75 0.113282,3.48828 0.34375,5.22266 0.226563,1.73437 0.566406,3.44531 1.019532,5.13281 0.453124,1.6875 1.011718,3.33984 1.679687,4.95703 0.671875,1.61324 1.441406,3.17964 2.316406,4.69144 0.871094,1.5156 1.84375,2.9648 2.90625,4.3515 1.0625,1.3867 2.214844,2.6992 3.449219,3.9336 1.238281,1.2344 2.546875,2.3867 3.933594,3.4492 1.386718,1.0664 2.839844,2.0352 4.351562,2.9063 1.515625,0.875 3.078125,1.6445 4.695313,2.3164 1.613281,0.668 3.265625,1.2266 4.953125,1.6797 1.691406,0.4531 3.402344,0.793 5.132812,1.0195 1.734375,0.2266 3.476563,0.3399 5.222656,0.3399 H 176.75 c 1.74609,0 3.48437,-0.1133 5.21875,-0.3438 1.73047,-0.2266 3.44141,-0.5664 5.12891,-1.0195 1.6875,-0.4531 3.33984,-1.0117 4.95312,-1.6836 1.61719,-0.668 3.17969,-1.4375 4.69141,-2.3125 1.51562,-0.875 2.96484,-1.8438 4.35156,-2.9063 1.38672,-1.0625 2.69922,-2.2109 3.93359,-3.4492 1.23438,-1.2344 2.38672,-2.543 3.44922,-3.9297 1.06641,-1.3867 2.03516,-2.8359 2.91016,-4.3515 l 67.00781,-116.05081 c 0.87109,-1.51563 1.83984,-2.96485 2.90625,-4.35157 1.0625,-1.38671 2.21094,-2.69921 3.44922,-3.93359 1.23437,-1.23437 2.54687,-2.38672 3.93359,-3.44922 1.38672,-1.0664 2.83594,-2.03515 4.34766,-2.91015 1.51562,-0.8711 3.07812,-1.64454 4.69141,-2.3125 1.61718,-0.66797 3.26953,-1.23047 4.95703,-1.6836 1.6875,-0.45312 3.39843,-0.79297 5.1289,-1.01953 1.73438,-0.22656 3.47657,-0.34375 5.22266,-0.34375 1.74609,0 3.48828,0.11719 5.22266,0.34375 1.73046,0.22656 3.4414,0.56641 5.1289,1.01953 1.6875,0.45313 3.33985,1.01563 4.95313,1.6836 1.61718,0.66796 3.17968,1.4414 4.69531,2.3125 1.51172,0.875 2.96094,1.84375 4.34766,2.91015 1.38671,1.0625 2.69921,2.21485 3.93359,3.44922 1.23828,1.23438 2.38672,2.54688 3.44922,3.93359 1.0664,1.38672 2.03125,2.83594 2.90625,4.35157 l 66.99609,116.03901 c 0.875,1.5157 1.84375,2.9649 2.90625,4.3516 1.0625,1.3867 2.21485,2.6992 3.44922,3.9336 1.23438,1.2344 2.54688,2.3867 3.93359,3.4492 1.38672,1.0664 2.83594,2.0352 4.35157,2.9102 1.51172,0.8711 3.07422,1.6445 4.6914,2.3125 1.61328,0.6719 3.26563,1.2304 4.95313,1.6836 1.6875,0.4531 3.39844,0.7968 5.13281,1.0234 1.73047,0.2305 3.47266,0.3438 5.21875,0.3438 h 134.01563 c 0.875,0 1.74609,-0.027 2.61718,-0.086 0.8711,-0.055 1.73828,-0.1406 2.60547,-0.2578 0.86328,-0.1133 1.72266,-0.2539 2.58203,-0.4258 0.85547,-0.1718 1.70313,-0.3672 2.54688,-0.5937 0.84375,-0.2266 1.67969,-0.4805 2.5039,-0.7617 0.82813,-0.2813 1.64454,-0.586 2.44922,-0.9219 0.8086,-0.336 1.60157,-0.6953 2.38282,-1.082 0.78515,-0.3829 1.55468,-0.7969 2.30859,-1.2344 0.75781,-0.4336 1.49609,-0.8946 2.22266,-1.3789 0.72656,-0.4883 1.4375,-0.9961 2.1289,-1.5274 0.69141,-0.5312 1.36719,-1.0859 2.02344,-1.6601 0.65625,-0.5742 1.29297,-1.1719 1.91016,-1.7891 0.61718,-0.6172 1.21093,-1.2539 1.78906,-1.9101 0.57422,-0.6563 1.1289,-1.3321 1.66015,-2.0235 0.53125,-0.6914 1.03907,-1.4023 1.52344,-2.1289 0.48438,-0.7226 0.94531,-1.4648 1.38281,-2.2226 0.4336,-0.754 0.84766,-1.5235 1.23047,-2.3086 0.38672,-0.7813 0.7461,-1.5743 1.08203,-2.38285 0.33204,-0.80469 0.64063,-1.62109 0.92188,-2.44922 0.28125,-0.82422 0.53516,-1.66016 0.75781,-2.50391 0.22656,-0.84375 0.42578,-1.6914 0.59766,-2.55078 0.16797,-0.85547 0.3125,-1.71484 0.42578,-2.58203 0.11328,-0.86328 0.19922,-1.73047 0.25391,-2.60156 0.0586,-0.87109 0.0859,-1.74609 0.0859,-2.61719 0,-0.87109 -0.0273,-1.74609 -0.082,-2.61719 -0.0586,-0.87109 -0.14453,-1.73828 -0.25781,-2.60156 -0.11328,-0.86719 -0.25781,-1.72656 -0.42578,-2.58594 -0.17188,-0.85546 -0.36719,-1.70312 -0.59375,-2.54687 -0.22656,-0.84375 -0.48047,-1.67969 -0.76172,-2.50391 -0.27734,-0.82812 -0.58594,-1.64453 -0.92188,-2.44922 -0.33203,-0.80859 -0.6914,-1.60156 -1.07812,-2.38671 -0.38672,-0.78125 -0.79688,-1.55079 -1.23438,-2.3086 L 347.66797,495.78516 c -0.875,-1.51563 -1.84375,-2.96485 -2.90625,-4.35157 -1.0625,-1.38672 -2.21094,-2.69922 -3.44922,-3.93359 -1.23438,-1.23828 -2.54688,-2.38672 -3.93359,-3.45313 -1.38672,-1.0625 -2.83594,-2.03125 -4.34766,-2.90625 -1.51563,-0.875 -3.07813,-1.64453 -4.69531,-2.3125 -1.61328,-0.67187 -3.26563,-1.23046 -4.95313,-1.68359 -1.6875,-0.45312 -3.39844,-0.79297 -5.13281,-1.01953 -1.73047,-0.23047 -3.47266,-0.34375 -5.21875,-0.34375 -1.74609,0 -3.48828,0.11328 -5.22266,0.34375 -1.73047,0.22656 -3.4414,0.56641 -5.1289,1.01953 -1.6875,0.45313 -3.33985,1.01172 -4.95703,1.68359 -1.61329,0.66797 -3.17579,1.4375 -4.69141,2.3125 -1.51172,0.875 -2.96094,1.84375 -4.34766,2.90625 -1.38672,1.06641 -2.69922,2.21485 -3.93359,3.45313 -1.23828,1.23437 -2.38672,2.54687 -3.44922,3.93359 -1.06641,1.38672 -2.03516,2.83594 -2.90625,4.35157 z m 0,0"
       fill-opacity="1"
       fill-rule="nonzero"
       id="path3"
       style="stroke-width:1.03349;fill:#ff6600" />
  </g>
  <g
     clip-path="url(#8389cd5e18)"
     id="g4"
     transform="matrix(0.99263889,0,0,0.94983391,-99.098054,-486.37374)"
     style="stroke-width:1.02986">
    <path
       fill="#f4f4f4"
       d="m 152.1875,960.19531 17.73437,-35.375 42.58594,-84.95703 51.51563,-102.76562 44.51953,-88.80469 c 7.1875,-14.33985 14.8125,-28.54297 21.59375,-43.07813 0.0937,-0.19922 0.19922,-0.39453 0.29687,-0.58984 h -34.04297 l 17.73438,35.37891 42.58594,84.95703 51.51562,102.76172 44.51563,88.80468 14.58984,29.10938 c 2.27734,4.53906 4.20313,9.72265 7.00391,13.97265 0.10937,0.19141 0.21093,0.38672 0.29687,0.58594 0.90625,1.8125 6.76953,2.71875 8.11328,2.94922 4.51172,0.73828 9.04688,0.90625 13.60157,0.49219 2.92968,-0.26953 14.84765,-1.03906 12.32812,-6.0625 L 490.94141,922.19531 448.35547,837.24609 396.84375,734.47656 352.32031,645.67187 337.73047,616.56641 c -2.25,-4.4961 -4.13672,-9.82422 -7.00391,-13.97266 -0.10937,-0.19141 -0.20703,-0.38672 -0.29297,-0.58984 -0.86718,-1.72657 -4.73047,-2.21485 -6.32812,-2.5586 -3.52344,-0.7539 -7.08985,-1.10937 -10.69531,-1.0625 -2.98438,0.0195 -5.95313,0.24219 -8.91016,0.67578 -1.32422,0.20313 -7.21094,1.15235 -8.10938,2.94532 l -17.73437,35.3789 -42.58594,84.95313 -51.51562,102.76562 -44.51563,88.80469 c -7.19922,14.36328 -14.46093,28.69141 -21.59765,43.08203 -0.0977,0.19531 -0.19532,0.39063 -0.29297,0.58594 -2.52735,5.03515 9.53906,5.88281 12.32812,6.0664 4.55469,0.39844 9.08985,0.23438 13.60156,-0.49609 2.07813,-0.38672 7.06641,-0.85937 8.11329,-2.94531 z m 0,0"
       fill-opacity="1"
       fill-rule="nonzero"
       id="path4"
       style="stroke-width:1.02986" />
  </g>
  <g
     fill="#000000"
     fill-opacity="1"
     id="g7"
     transform="translate(-88.930123,-493.0243)"
     style="fill:#ffffff">
    <g
       transform="translate(698.36059,709.88406)"
       id="g6"
       style="fill:#ffffff">
      <g
         id="g5"
         style="fill:#ffffff">
        <path
           d="m 141.51562,-79.75 -33.73437,-87.39062 c -1,-2.60157 -2.05469,-5.62891 -3.15625,-9.07813 -1.09375,-3.44531 -2.14062,-7.11719 -3.14062,-11.01562 -2.093755,8.09375 -4.242192,14.83984 -6.437505,20.23437 L 61.3125,-79.75 Z M 202.07812,0 h -22.48437 c -2.60547,0 -4.71094,-0.644531 -6.3125,-1.9375 -1.59375,-1.300781 -2.79297,-2.953125 -3.59375,-4.953125 l -20.07813,-51.875 H 53.21875 L 33.125,-6.890625 C 32.53125,-5.097656 31.382812,-3.5 29.6875,-2.09375 27.988281,-0.695312 25.890625,0 23.390625,0 H 0.90625 l 85.890625,-214.8125 h 29.375005 z m 0,0"
           id="path5"
           style="fill:#ffffff" />
      </g>
    </g>
  </g>
  <g
     fill="#000000"
     fill-opacity="1"
     id="g10"
     transform="translate(-88.930123,-493.0243)"
     style="fill:#ffffff">
    <g
       transform="translate(883.94014,709.88406)"
       id="g9"
       style="fill:#ffffff">
      <g
         id="g8"
         style="fill:#ffffff">
        <path
           d="m 109.57813,-126.82813 c -1.19922,2.21094 -3.04688,3.3125 -5.54688,3.3125 -1.5,0 -3.19922,-0.55078 -5.09375,-1.65625 -1.898438,-1.10156 -4.21875,-2.32812 -6.96875,-3.67187 -2.75,-1.35156 -6.027344,-2.60156 -9.828125,-3.75 -3.792969,-1.14453 -8.289063,-1.71875 -13.484375,-1.71875 -4.5,0 -8.546875,0.57422 -12.140625,1.71875 -3.59375,1.14844 -6.667969,2.71875 -9.21875,4.71875 -2.554687,2 -4.507813,4.32812 -5.859375,6.98437 -1.34375,2.64844 -2.015625,5.51563 -2.015625,8.60938 0,3.89844 1.125,7.14844 3.375,9.75 2.25,2.59375 5.222656,4.84375 8.921875,6.75 3.695312,1.898438 7.894531,3.570312 12.59375,5.015625 4.695312,1.449219 9.519531,3 14.46875,4.65625 4.945312,1.648437 9.765625,3.46875 14.453125,5.46875 4.695313,1.992187 8.894535,4.484375 12.593755,7.484375 3.69531,3 6.67187,6.679688 8.92187,11.03125 2.25,4.34375 3.375,9.5625 3.375,15.65625 0,6.992188 -1.25,13.460938 -3.75,19.40625 -2.5,5.949219 -6.19922,11.101562 -11.09375,15.453125 -4.898438,4.34375 -10.890625,7.765625 -17.984375,10.265625 -7.09375,2.5 -15.289063,3.75 -24.578125,3.75 -10.59375,0 -20.195312,-1.726562 -28.796875,-5.171875 -8.59375,-3.445313 -15.886719,-7.875 -21.875,-13.28125 l 6.296875,-10.1875 c 0.789062,-1.300781 1.738281,-2.300781 2.84375,-3 1.101562,-0.695313 2.503906,-1.046875 4.203125,-1.046875 1.789063,0 3.6875,0.703125 5.6875,2.109375 2,1.398437 4.421875,2.945313 7.265625,4.640625 2.851562,1.699219 6.328125,3.246094 10.421875,4.640625 4.101563,1.398437 9.203125,2.09375 15.296875,2.09375 5.195312,0 9.742188,-0.671875 13.640625,-2.015625 3.894531,-1.351562 7.140625,-3.175781 9.734375,-5.46875 2.601562,-2.300781 4.53125,-4.953125 5.78125,-7.953125 1.25,-3 1.875,-6.195313 1.875,-9.59375 0,-4.195313 -1.125,-7.664063 -3.375,-10.40625 -2.25,-2.75 -5.226562,-5.097656 -8.921875,-7.046875 -3.699219,-1.957031 -7.921875,-3.660156 -12.671875,-5.109375 -4.742188,-1.445313 -9.585938,-2.96875 -14.53125,-4.5625 -4.949219,-1.601563 -9.796875,-3.425781 -14.546875,-5.46875 -4.742187,-2.050781 -8.960937,-4.625 -12.65625,-7.71875 -3.699219,-3.101563 -6.671875,-6.925781 -8.921875,-11.46875 -2.25,-4.550781 -3.375,-10.078125 -3.375,-16.578125 0,-5.78906 1.195312,-11.35938 3.59375,-16.70313 2.394531,-5.35156 5.890625,-10.05078 10.484375,-14.09374 4.601563,-4.05079 10.253906,-7.27344 16.953125,-9.67188 6.695312,-2.39453 14.34375,-3.59375 22.9375,-3.59375 9.988281,0 18.957031,1.57422 26.90625,4.71875 7.94531,3.14844 14.81641,7.46875 20.60938,12.96875 z m 0,0"
           id="path7"
           style="fill:#ffffff" />
      </g>
    </g>
  </g>
  <g
     fill="#000000"
     fill-opacity="1"
     id="g13"
     transform="translate(-88.930123,-493.0243)"
     style="fill:#ffffff">
    <g
       transform="translate(996.36707,709.88406)"
       id="g12"
       style="fill:#ffffff">
      <g
         id="g11"
         style="fill:#ffffff">
        <path
           d="m 67.75,2.40625 c -11.992188,0 -21.210938,-3.347656 -27.65625,-10.046875 -6.4375,-6.695313 -9.65625,-16.34375 -9.65625,-28.9375 V -129.51562 H 12.140625 c -1.59375,0 -2.945313,-0.47266 -4.046875,-1.42188 C 7,-131.88281 6.453125,-133.35937 6.453125,-135.35937 v -10.65625 l 24.875,-3.14063 6.140625,-46.92187 c 0.300781,-1.5 0.976562,-2.72266 2.03125,-3.67188 1.050781,-0.94531 2.425781,-1.42187 4.125,-1.42187 h 13.484375 v 52.3125 h 43.921875 v 19.34375 H 57.109375 V -38.375 c 0,6.398438 1.546875,11.148438 4.640625,14.25 3.101562,3.09375 7.101562,4.640625 12,4.640625 2.800781,0 5.222656,-0.375 7.265625,-1.125 2.050781,-0.75 3.828125,-1.570313 5.328125,-2.46875 1.5,-0.90625 2.773438,-1.734375 3.828125,-2.484375 1.050781,-0.75 1.972656,-1.125 2.765625,-1.125 1.40625,0 2.65625,0.851562 3.75,2.546875 l 7.79688,12.75 c -4.593755,4.292969 -10.14063,7.667969 -16.64063,10.125 C 81.34375,1.179688 74.644531,2.40625 67.75,2.40625 Z m 0,0"
           id="path10"
           style="fill:#ffffff" />
      </g>
    </g>
  </g>
  <g
     fill="#000000"
     fill-opacity="1"
     id="g16"
     transform="translate(-88.930123,-493.0243)"
     style="fill:#ffffff">
    <g
       transform="translate(1086.4585,709.88406)"
       id="g15"
       style="fill:#ffffff">
      <g
         id="g14"
         style="fill:#ffffff">
        <path
           d="m 46.46875,-121.42188 c 4.800781,-10.39453 10.695312,-18.51562 17.6875,-24.35937 7,-5.84375 15.546875,-8.76562 25.640625,-8.76562 3.195313,0 6.269531,0.35156 9.21875,1.04687 2.945315,0.69922 5.570315,1.79688 7.875005,3.29688 l -1.95313,19.9375 c -0.60547,2.49999 -2.10547,3.74999 -4.5,3.74999 -1.398438,0 -3.445312,-0.29687 -6.140625,-0.89062 -2.699219,-0.60156 -5.75,-0.90625 -9.15625,-0.90625 -4.792969,0 -9.0625,0.69922 -12.8125,2.09375 -3.75,1.39844 -7.101563,3.46875 -10.046875,6.21875 -2.949219,2.75 -5.601562,6.15234 -7.953125,10.20312 -2.34375,4.04297 -4.464844,8.66407 -6.359375,13.85938 V 0 H 21.140625 v -151.85937 h 15.28125 c 2.90625,0 4.90625,0.55468 6,1.65625 1.101563,1.09375 1.851563,2.99218 2.25,5.6875 z m 0,0"
           id="path13"
           style="fill:#ffffff" />
      </g>
    </g>
  </g>
  <g
     fill="#000000"
     fill-opacity="1"
     id="g19"
     transform="translate(-88.930123,-493.0243)"
     style="fill:#ffffff">
    <g
       transform="translate(1178.1989,709.88406)"
       id="g18"
       style="fill:#ffffff">
      <g
         id="g17"
         style="fill:#ffffff">
        <path
           d="m 85.140625,-154.25 c 11.09375,0 21.085935,1.85156 29.984375,5.54688 8.89453,3.69921 16.48828,8.94921 22.78125,15.75 6.30078,6.79296 11.125,15.01171 14.46875,24.65624 3.35156,9.636724 5.03125,20.402349 5.03125,32.29688 0,11.992188 -1.67969,22.78125 -5.03125,32.375 -3.34375,9.59375 -8.16797,17.792969 -14.46875,24.59375 C 131.61328,-12.238281 124.01953,-7.019531 115.125,-3.375 106.22656,0.269531 96.234375,2.09375 85.140625,2.09375 73.953125,2.09375 63.882812,0.269531 54.9375,-3.375 46,-7.019531 38.378906,-12.238281 32.078125,-19.03125 c -6.292969,-6.800781 -11.117187,-15 -14.46875,-24.59375 -3.34375,-9.59375 -5.015625,-20.382812 -5.015625,-32.375 0,-11.894531 1.671875,-22.660156 5.015625,-32.29688 3.351563,-9.64453 8.175781,-17.86328 14.46875,-24.65624 6.300781,-6.80079 13.921875,-12.05079 22.859375,-15.75 8.945312,-3.69532 19.015625,-5.54688 30.203125,-5.54688 z m 0,135.515625 c 14.988285,0 26.179685,-5.019531 33.578125,-15.0625 7.39453,-10.050781 11.09375,-24.070313 11.09375,-42.0625 0,-18.082031 -3.69922,-32.171875 -11.09375,-42.265625 -7.39844,-10.09375 -18.58984,-15.14062 -33.578125,-15.14062 -7.59375,0 -14.214844,1.30468 -19.859375,3.90625 -5.648438,2.59374 -10.34375,6.33984 -14.09375,11.23437 -3.742188,4.89844 -6.539062,10.91797 -8.390625,18.0625 -1.84375,7.148438 -2.765625,15.214844 -2.765625,24.203125 0,17.992187 3.71875,32.011719 11.15625,42.0625 7.445312,10.042969 18.765625,15.0625 33.953125,15.0625 z m 0,0"
           id="path16"
           style="fill:#ffffff" />
      </g>
    </g>
  </g>
  <g
     fill="#000000"
     fill-opacity="1"
     id="g22"
     transform="translate(-88.930123,-493.0243)"
     style="fill:#ffffff">
    <g
       transform="translate(698.36059,976.13404)"
       id="g21"
       style="fill:#ffffff">
      <g
         id="g20"
         style="fill:#ffffff">
        <path
           d="m 137.3125,-181.23437 c -0.89844,1.5 -1.87109,2.625 -2.92188,3.375 -1.05468,0.75 -2.32812,1.125 -3.82812,1.125 -1.69922,0 -3.69922,-0.84766 -6,-2.54688 -2.29297,-1.70703 -5.16406,-3.58203 -8.60937,-5.625 -3.44922,-2.05078 -7.60157,-3.92578 -12.45313,-5.625 -4.84375,-1.69531 -10.714844,-2.54687 -17.609375,-2.54687 -6.492187,0 -12.210937,0.875 -17.15625,2.625 -4.949219,1.75 -9.101563,4.125 -12.453125,7.125 -3.34375,2.99218 -5.867188,6.51171 -7.5625,10.5625 -1.699219,4.04296 -2.546875,8.41406 -2.546875,13.10937 0,6 1.472656,10.97656 4.421875,14.92188 2.945312,3.94921 6.84375,7.32421 11.6875,10.125 4.851562,2.79296 10.351562,5.21484 16.5,7.26562 6.144531,2.05469 12.4375,4.17969 18.875,6.375 6.44531,2.19922 12.74219,4.67187 18.89063,7.42187 6.14453,2.74219 11.64062,6.21094 16.48437,10.40625 4.85156,4.199224 8.75391,9.351568 11.70312,15.45313 2.94532,6.09375 4.42188,13.589844 4.42188,22.484375 0,9.386719 -1.60156,18.203125 -4.79688,26.453125 -3.19921,8.242188 -7.87109,15.414062 -14.01562,21.515625 -6.14844,6.09375 -13.69531,10.890625 -22.64062,14.390625 -8.937505,3.5 -19.105474,5.25 -30.500005,5.25 -13.992187,0 -26.683594,-2.519531 -38.078125,-7.5625 C 27.726562,-10.207031 17.984375,-17.035156 9.890625,-25.640625 l 8.390625,-13.78125 c 0.800781,-1.101563 1.773438,-2.03125 2.921875,-2.78125 1.15625,-0.75 2.429687,-1.125 3.828125,-1.125 1.300781,0 2.773438,0.527344 4.421875,1.578125 1.65625,1.054688 3.53125,2.382812 5.625,3.984375 2.09375,1.59375 4.488281,3.339844 7.1875,5.234375 2.707031,1.898438 5.785156,3.648438 9.234375,5.25 3.445312,1.59375 7.367188,2.917969 11.765625,3.96875 4.394531,1.054688 9.335937,1.578125 14.828125,1.578125 6.894531,0 13.039062,-0.945313 18.4375,-2.84375 5.40625,-1.90625 9.97656,-4.582031 13.71875,-8.03125 3.75,-3.445313 6.625,-7.566406 8.625,-12.359375 2,-4.800781 3,-10.148438 3,-16.046875 0,-6.488281 -1.47656,-11.804687 -4.42187,-15.953125 -2.94922,-4.15625 -6.82422,-7.628906 -11.625,-10.421875 -4.79297,-2.800781 -10.289068,-5.175781 -16.48438,-7.125 -6.199219,-1.945313 -12.496094,-3.941406 -18.890625,-5.984375 -6.398437,-2.05078 -12.695313,-4.42578 -18.890625,-7.125 -6.1875,-2.70703 -11.683594,-6.20703 -16.484375,-10.5 -4.804687,-4.30078 -8.679687,-9.67188 -11.625,-16.10937 -2.949219,-6.44532 -4.421875,-14.42188 -4.421875,-23.92188 0,-7.59375 1.472656,-14.9375 4.421875,-22.03125 2.945313,-7.09375 7.242187,-13.38281 12.890625,-18.875 5.65625,-5.5 12.601562,-9.89844 20.84375,-13.20312 8.25,-3.30079 17.71875,-4.95313 28.40625,-4.95313 11.988281,0 22.90625,1.90234 32.75,5.70313 9.84375,3.79296 18.51562,9.28906 26.01562,16.48437 z m 0,0"
           id="path19"
           style="fill:#ffffff" />
      </g>
    </g>
  </g>
  <g
     fill="#000000"
     fill-opacity="1"
     id="g25"
     transform="translate(-88.930123,-493.0243)"
     style="fill:#ffffff">
    <g
       transform="translate(843.61629,976.13404)"
       id="g24"
       style="fill:#ffffff">
      <g
         id="g23"
         style="fill:#ffffff">
        <path
           d="m 67.75,2.40625 c -11.992188,0 -21.210938,-3.347656 -27.65625,-10.046875 -6.4375,-6.695313 -9.65625,-16.34375 -9.65625,-28.9375 V -129.51562 H 12.140625 c -1.59375,0 -2.945313,-0.47266 -4.046875,-1.42188 C 7,-131.88281 6.453125,-133.35937 6.453125,-135.35937 v -10.65625 l 24.875,-3.14063 6.140625,-46.92187 c 0.300781,-1.5 0.976562,-2.72266 2.03125,-3.67188 1.050781,-0.94531 2.425781,-1.42187 4.125,-1.42187 h 13.484375 v 52.3125 h 43.921875 v 19.34375 H 57.109375 V -38.375 c 0,6.398438 1.546875,11.148438 4.640625,14.25 3.101562,3.09375 7.101562,4.640625 12,4.640625 2.800781,0 5.222656,-0.375 7.265625,-1.125 2.050781,-0.75 3.828125,-1.570313 5.328125,-2.46875 1.5,-0.90625 2.773438,-1.734375 3.828125,-2.484375 1.050781,-0.75 1.972656,-1.125 2.765625,-1.125 1.40625,0 2.65625,0.851562 3.75,2.546875 l 7.79688,12.75 c -4.593755,4.292969 -10.14063,7.667969 -16.64063,10.125 C 81.34375,1.179688 74.644531,2.40625 67.75,2.40625 Z m 0,0"
           id="path22"
           style="fill:#ffffff" />
      </g>
    </g>
  </g>
  <g
     fill="#000000"
     fill-opacity="1"
     id="g28"
     transform="translate(-88.930123,-493.0243)"
     style="fill:#ffffff">
    <g
       transform="translate(933.70772,976.13404)"
       id="g27"
       style="fill:#ffffff">
      <g
         id="g26"
         style="fill:#ffffff">
        <path
           d="m 103.4375,-68.359375 c -12.292969,0.40625 -22.761719,1.386719 -31.40625,2.9375 -8.648438,1.542969 -15.695312,3.5625 -21.140625,6.0625 -5.449219,2.5 -9.398437,5.449219 -11.84375,8.84375 -2.449219,3.398437 -3.671875,7.195313 -3.671875,11.390625 0,4 0.648438,7.449219 1.953125,10.34375 1.300781,2.898438 3.070313,5.273438 5.3125,7.125 2.25,1.84375 4.898437,3.195312 7.953125,4.046875 3.050781,0.84375 6.320312,1.265625 9.8125,1.265625 4.695312,0 8.992188,-0.472656 12.890625,-1.421875 3.90625,-0.945313 7.582031,-2.316406 11.03125,-4.109375 3.445313,-1.800781 6.742187,-3.953125 9.890625,-6.453125 3.144531,-2.5 6.21875,-5.347656 9.21875,-8.546875 z M 17.234375,-130.42187 c 8.394531,-8.09375 17.4375,-14.13282 27.125,-18.125 9.695313,-4 20.445313,-6 32.25,-6 8.488281,0 16.03125,1.40234 22.625,4.20312 6.593755,2.79297 12.140625,6.6875 16.640625,11.6875 4.5,4.99219 7.89453,11.03906 10.1875,18.14062 2.30078,7.09375 3.45312,14.88672 3.45312,23.375005 V 0 h -11.84374 c -2.59375,0 -4.59375,-0.421875 -6,-1.265625 -1.39844,-0.851563 -2.4961,-2.53125 -3.29688,-5.03125 L 105.39063,-20.6875 c -4,3.699219 -7.902349,6.976562 -11.70313,9.828125 -3.792969,2.84375 -7.789062,5.242187 -11.984375,7.1875 -4.199219,1.949219 -8.671875,3.449219 -13.421875,4.5 -4.75,1.050781 -10.023438,1.578125 -15.8125,1.578125 -5.898438,0 -11.445312,-0.824219 -16.640625,-2.46875 C 30.628906,-1.71875 26.101562,-4.191406 22.25,-7.484375 18.40625,-10.785156 15.359375,-14.957031 13.109375,-20 10.867188,-25.050781 9.75,-31.023438 9.75,-37.921875 c 0,-6 1.644531,-11.769531 4.9375,-17.3125 3.300781,-5.550781 8.648438,-10.472656 16.046875,-14.765625 7.394531,-4.300781 17.035156,-7.828125 28.921875,-10.578125 11.894531,-2.75 26.488281,-4.320313 43.78125,-4.71875 v -11.84375 c 0,-11.789065 -2.55469,-20.707035 -7.65625,-26.750005 -5.09375,-6.05078 -12.539062,-9.07812 -22.328125,-9.07812 -6.59375,0 -12.117187,0.82813 -16.5625,2.48438 -4.449219,1.64843 -8.296875,3.49609 -11.546875,5.54687 -3.25,2.04297 -6.054688,3.89062 -8.40625,5.54687 -2.34375,1.64844 -4.664062,2.46875 -6.953125,2.46875 -1.804687,0 -3.355469,-0.47265 -4.65625,-1.42187 -1.292969,-0.95703 -2.390625,-2.13281 -3.296875,-3.53125 z m 0,0"
           id="path25"
           style="fill:#ffffff" />
      </g>
    </g>
  </g>
  <g
     fill="#000000"
     fill-opacity="1"
     id="g31"
     transform="translate(-88.930123,-493.0243)"
     style="fill:#ffffff">
    <g
       transform="translate(1065.3222,976.13404)"
       id="g30"
       style="fill:#ffffff">
      <g
         id="g29"
         style="fill:#ffffff">
        <path
           d="m 46.46875,-121.42188 c 4.800781,-10.39453 10.695312,-18.51562 17.6875,-24.35937 7,-5.84375 15.546875,-8.76562 25.640625,-8.76562 3.195313,0 6.269531,0.35156 9.21875,1.04687 2.945315,0.69922 5.570315,1.79688 7.875005,3.29688 l -1.95313,19.9375 c -0.60547,2.49999 -2.10547,3.74999 -4.5,3.74999 -1.398438,0 -3.445312,-0.29687 -6.140625,-0.89062 -2.699219,-0.60156 -5.75,-0.90625 -9.15625,-0.90625 -4.792969,0 -9.0625,0.69922 -12.8125,2.09375 -3.75,1.39844 -7.101563,3.46875 -10.046875,6.21875 -2.949219,2.75 -5.601562,6.15234 -7.953125,10.20312 -2.34375,4.04297 -4.464844,8.66407 -6.359375,13.85938 V 0 H 21.140625 v -151.85937 h 15.28125 c 2.90625,0 4.90625,0.55468 6,1.65625 1.101563,1.09375 1.851563,2.99218 2.25,5.6875 z m 0,0"
           id="path28"
           style="fill:#ffffff" />
      </g>
    </g>
  </g>
  <g
     fill="#000000"
     fill-opacity="1"
     id="g34"
     transform="translate(-88.930123,-493.0243)"
     style="fill:#ffffff">
    <g
       transform="translate(1157.0626,976.13404)"
       id="g33"
       style="fill:#ffffff">
      <g
         id="g32"
         style="fill:#ffffff">
        <path
           d="m 67.75,2.40625 c -11.992188,0 -21.210938,-3.347656 -27.65625,-10.046875 -6.4375,-6.695313 -9.65625,-16.34375 -9.65625,-28.9375 V -129.51562 H 12.140625 c -1.59375,0 -2.945313,-0.47266 -4.046875,-1.42188 C 7,-131.88281 6.453125,-133.35937 6.453125,-135.35937 v -10.65625 l 24.875,-3.14063 6.140625,-46.92187 c 0.300781,-1.5 0.976562,-2.72266 2.03125,-3.67188 1.050781,-0.94531 2.425781,-1.42187 4.125,-1.42187 h 13.484375 v 52.3125 h 43.921875 v 19.34375 H 57.109375 V -38.375 c 0,6.398438 1.546875,11.148438 4.640625,14.25 3.101562,3.09375 7.101562,4.640625 12,4.640625 2.800781,0 5.222656,-0.375 7.265625,-1.125 2.050781,-0.75 3.828125,-1.570313 5.328125,-2.46875 1.5,-0.90625 2.773438,-1.734375 3.828125,-2.484375 1.050781,-0.75 1.972656,-1.125 2.765625,-1.125 1.40625,0 2.65625,0.851562 3.75,2.546875 l 7.79688,12.75 c -4.593755,4.292969 -10.14063,7.667969 -16.64063,10.125 C 81.34375,1.179688 74.644531,2.40625 67.75,2.40625 Z m 0,0"
           id="path31"
           style="fill:#ffffff" />
      </g>
    </g>
  </g>
  <g
     fill="#000000"
     fill-opacity="1"
     id="g37"
     transform="translate(-88.930123,-493.0243)"
     style="fill:#ffffff">
    <g
       transform="translate(1247.154,976.13404)"
       id="g36"
       style="fill:#ffffff">
      <g
         id="g35"
         style="fill:#ffffff">
        <path
           d="m 122.76563,-92.484375 c 0,-6.195313 -0.875,-11.867185 -2.625,-17.015625 -1.74219,-5.15625 -4.28907,-9.60156 -7.64063,-13.34375 -3.34375,-3.75 -7.41797,-6.64453 -12.21875,-8.6875 -4.792969,-2.05078 -10.234375,-3.07812 -16.328125,-3.07812 -12.792969,0 -22.914063,3.72656 -30.359375,11.17187 -7.449219,7.4375 -12.074219,17.75781 -13.875,30.953125 z m 21.59374,71.203125 c -3.30468,3.992188 -7.25,7.460938 -11.84375,10.40625 C 127.92188,-7.925781 123,-5.5 117.75,-3.59375 112.5,-1.695312 107.07813,-0.273438 101.48438,0.671875 95.890625,1.617188 90.34375,2.09375 84.84375,2.09375 c -10.492188,0 -20.15625,-1.773438 -29,-5.3125 C 47,-6.769531 39.351562,-11.96875 32.90625,-18.8125 26.457031,-25.65625 21.429688,-34.125 17.828125,-44.21875 14.234375,-54.3125 12.4375,-65.90625 12.4375,-79 c 0,-10.59375 1.625,-20.484375 4.875,-29.67188 3.25,-9.19531 7.921875,-17.16406 14.015625,-23.90624 6.09375,-6.75 13.535156,-12.04688 22.328125,-15.89063 8.800781,-3.85156 18.695312,-5.78125 29.6875,-5.78125 9.09375,0 17.50781,1.52734 25.25,4.57813 7.75,3.04296 14.44531,7.4375 20.09375,13.1875 5.65625,5.74218 10.08203,12.83593 13.28125,21.28124 3.19531,8.44922 4.79687,18.070318 4.79687,28.85938 0,4.199219 -0.45312,6.996094 -1.35937,8.390625 -0.89844,1.398437 -2.59375,2.09375 -5.09375,2.09375 H 38.828125 c 0.300781,9.59375 1.625,17.945313 3.96875,25.046875 2.351563,7.09375 5.625,13.015625 9.8125,17.765625 4.195313,4.742187 9.191406,8.289063 14.984375,10.640625 5.800781,2.34375 12.300781,3.515625 19.5,3.515625 6.695312,0 12.46875,-0.769531 17.3125,-2.3125 4.85156,-1.550781 9.02344,-3.226563 12.51563,-5.03125 3.5,-1.800781 6.42187,-3.472656 8.76562,-5.015625 2.35156,-1.550781 4.37891,-2.328125 6.07812,-2.328125 2.19532,0 3.89454,0.851563 5.09375,2.546875 z m 0,0"
           id="path34"
           style="fill:#ffffff" />
      </g>
    </g>
  </g>
  <g
     fill="#000000"
     fill-opacity="1"
     id="g40"
     transform="translate(-88.930123,-493.0243)"
     style="fill:#ffffff">
    <g
       transform="translate(1388.0625,976.13404)"
       id="g39"
       style="fill:#ffffff">
      <g
         id="g38"
         style="fill:#ffffff">
        <path
           d="m 46.46875,-121.42188 c 4.800781,-10.39453 10.695312,-18.51562 17.6875,-24.35937 7,-5.84375 15.546875,-8.76562 25.640625,-8.76562 3.195313,0 6.269531,0.35156 9.21875,1.04687 2.945315,0.69922 5.570315,1.79688 7.875005,3.29688 l -1.95313,19.9375 c -0.60547,2.49999 -2.10547,3.74999 -4.5,3.74999 -1.398438,0 -3.445312,-0.29687 -6.140625,-0.89062 -2.699219,-0.60156 -5.75,-0.90625 -9.15625,-0.90625 -4.792969,0 -9.0625,0.69922 -12.8125,2.09375 -3.75,1.39844 -7.101563,3.46875 -10.046875,6.21875 -2.949219,2.75 -5.601562,6.15234 -7.953125,10.20312 -2.34375,4.04297 -4.464844,8.66407 -6.359375,13.85938 V 0 H 21.140625 v -151.85937 h 15.28125 c 2.90625,0 4.90625,0.55468 6,1.65625 1.101563,1.09375 1.851563,2.99218 2.25,5.6875 z m 0,0"
           id="path37"
           style="fill:#ffffff" />
      </g>
    </g>
  </g>
</svg>
