<svg xmlns="http://www.w3.org/2000/svg" xmlns:xlink="http://www.w3.org/1999/xlink" width="2000" zoomAndPan="magnify" viewBox="0 0 1500 525.000007" height="700" preserveAspectRatio="xMidYMid meet" version="1.0"><defs><clipPath id="22b8388da2"><path d="M 1.425781 0 L 1498.574219 0 L 1498.574219 524 L 1.425781 524 Z M 1.425781 0 " clip-rule="nonzero"/></clipPath><clipPath id="7f1b248986"><path d="M 565 81.011719 L 934 81.011719 L 934 405.890625 L 565 405.890625 Z M 565 81.011719 " clip-rule="nonzero"/></clipPath><clipPath id="43519eb698"><path d="M 627 159.113281 L 873 159.113281 L 873 388.175781 L 627 388.175781 Z M 627 159.113281 " clip-rule="nonzero"/></clipPath></defs><g clip-path="url(#22b8388da2)"><path fill="#ffffff" d="M 1.425781 0 L 1498.574219 0 L 1498.574219 524 L 1.425781 524 Z M 1.425781 0 " fill-opacity="1" fill-rule="nonzero"/><path fill="#ffffff" d="M 1.425781 0 L 1498.574219 0 L 1498.574219 524 L 1.425781 524 Z M 1.425781 0 " fill-opacity="1" fill-rule="nonzero"/></g><g clip-path="url(#7f1b248986)"><path fill="#ff751f" d="M 729.257812 92.863281 L 569.0625 370.335938 C 568.542969 371.230469 568.085938 372.160156 567.691406 373.117188 C 567.292969 374.074219 566.960938 375.050781 566.691406 376.050781 C 566.425781 377.054688 566.222656 378.066406 566.085938 379.09375 C 565.949219 380.121094 565.882812 381.152344 565.882812 382.1875 C 565.882812 383.226562 565.949219 384.257812 566.085938 385.285156 C 566.21875 386.3125 566.421875 387.324219 566.691406 388.328125 C 566.957031 389.328125 567.289062 390.304688 567.6875 391.261719 C 568.082031 392.222656 568.539062 393.148438 569.058594 394.046875 C 569.578125 394.941406 570.152344 395.800781 570.78125 396.625 C 571.410156 397.445312 572.09375 398.222656 572.828125 398.957031 C 573.558594 399.6875 574.335938 400.371094 575.160156 401 C 575.980469 401.632812 576.839844 402.207031 577.738281 402.722656 C 578.632812 403.242188 579.5625 403.699219 580.519531 404.09375 C 581.476562 404.492188 582.457031 404.824219 583.457031 405.089844 C 584.457031 405.359375 585.472656 405.5625 586.5 405.695312 C 587.527344 405.832031 588.558594 405.898438 589.59375 405.898438 L 669.011719 405.898438 C 670.046875 405.898438 671.078125 405.828125 672.105469 405.695312 C 673.132812 405.558594 674.148438 405.355469 675.148438 405.089844 C 676.148438 404.820312 677.125 404.488281 678.082031 404.09375 C 679.039062 403.695312 679.96875 403.238281 680.863281 402.722656 C 681.761719 402.203125 682.621094 401.628906 683.441406 401 C 684.265625 400.367188 685.042969 399.6875 685.773438 398.953125 C 686.507812 398.222656 687.1875 397.445312 687.820312 396.625 C 688.449219 395.800781 689.023438 394.941406 689.542969 394.046875 L 729.257812 325.257812 C 729.777344 324.363281 730.351562 323.503906 730.980469 322.679688 C 731.613281 321.859375 732.292969 321.082031 733.027344 320.347656 C 733.757812 319.617188 734.535156 318.933594 735.359375 318.304688 C 736.179688 317.671875 737.039062 317.097656 737.9375 316.582031 C 738.832031 316.0625 739.761719 315.605469 740.71875 315.207031 C 741.675781 314.8125 742.652344 314.480469 743.652344 314.210938 C 744.65625 313.941406 745.667969 313.742188 746.695312 313.605469 C 747.722656 313.472656 748.753906 313.402344 749.789062 313.402344 C 750.824219 313.402344 751.859375 313.472656 752.882812 313.605469 C 753.910156 313.742188 754.925781 313.941406 755.925781 314.210938 C 756.925781 314.480469 757.90625 314.8125 758.863281 315.207031 C 759.820312 315.605469 760.746094 316.0625 761.644531 316.582031 C 762.539062 317.097656 763.402344 317.671875 764.222656 318.304688 C 765.042969 318.933594 765.820312 319.617188 766.554688 320.347656 C 767.285156 321.082031 767.96875 321.859375 768.597656 322.679688 C 769.226562 323.503906 769.800781 324.363281 770.320312 325.257812 L 810.03125 394.039062 C 810.546875 394.9375 811.121094 395.796875 811.753906 396.617188 C 812.382812 397.4375 813.066406 398.214844 813.796875 398.949219 C 814.53125 399.679688 815.308594 400.363281 816.128906 400.992188 C 816.949219 401.625 817.808594 402.199219 818.707031 402.71875 C 819.605469 403.234375 820.53125 403.691406 821.488281 404.089844 C 822.445312 404.488281 823.421875 404.820312 824.425781 405.085938 C 825.425781 405.355469 826.4375 405.558594 827.464844 405.695312 C 828.492188 405.828125 829.523438 405.898438 830.558594 405.898438 L 909.996094 405.898438 C 910.511719 405.898438 911.027344 405.878906 911.542969 405.847656 C 912.0625 405.8125 912.574219 405.761719 913.089844 405.695312 C 913.601562 405.625 914.113281 405.542969 914.617188 405.441406 C 915.125 405.339844 915.628906 405.222656 916.128906 405.089844 C 916.628906 404.953125 917.125 404.804688 917.613281 404.636719 C 918.105469 404.472656 918.585938 404.289062 919.066406 404.089844 C 919.542969 403.894531 920.015625 403.679688 920.480469 403.449219 C 920.941406 403.222656 921.398438 402.976562 921.847656 402.71875 C 922.292969 402.460938 922.734375 402.1875 923.164062 401.898438 C 923.59375 401.613281 924.015625 401.3125 924.425781 400.996094 C 924.835938 400.679688 925.234375 400.351562 925.625 400.011719 C 926.011719 399.671875 926.390625 399.316406 926.753906 398.953125 C 927.121094 398.585938 927.476562 398.207031 927.816406 397.820312 C 928.15625 397.429688 928.484375 397.03125 928.800781 396.621094 C 929.113281 396.210938 929.417969 395.789062 929.703125 395.359375 C 929.992188 394.929688 930.265625 394.488281 930.523438 394.042969 C 930.78125 393.59375 931.023438 393.136719 931.253906 392.671875 C 931.484375 392.210938 931.695312 391.738281 931.894531 391.261719 C 932.09375 390.78125 932.273438 390.296875 932.441406 389.808594 C 932.605469 389.320312 932.757812 388.824219 932.890625 388.324219 C 933.023438 387.824219 933.140625 387.320312 933.242188 386.8125 C 933.34375 386.304688 933.429688 385.796875 933.496094 385.28125 C 933.5625 384.769531 933.613281 384.253906 933.648438 383.738281 C 933.683594 383.222656 933.699219 382.707031 933.699219 382.1875 C 933.699219 381.671875 933.683594 381.152344 933.648438 380.636719 C 933.613281 380.121094 933.5625 379.605469 933.496094 379.09375 C 933.429688 378.582031 933.34375 378.070312 933.242188 377.5625 C 933.144531 377.054688 933.027344 376.550781 932.890625 376.050781 C 932.757812 375.554688 932.609375 375.058594 932.441406 374.566406 C 932.277344 374.078125 932.09375 373.59375 931.894531 373.117188 C 931.699219 372.636719 931.484375 372.167969 931.253906 371.703125 C 931.027344 371.238281 930.78125 370.78125 930.523438 370.335938 L 770.320312 92.863281 C 769.800781 91.964844 769.226562 91.105469 768.597656 90.285156 C 767.96875 89.460938 767.285156 88.683594 766.554688 87.953125 C 765.820312 87.21875 765.042969 86.539062 764.222656 85.90625 C 763.402344 85.277344 762.539062 84.703125 761.644531 84.183594 C 760.746094 83.664062 759.820312 83.207031 758.863281 82.8125 C 757.90625 82.414062 756.925781 82.082031 755.925781 81.816406 C 754.925781 81.546875 753.910156 81.34375 752.882812 81.210938 C 751.859375 81.074219 750.824219 81.007812 749.789062 81.007812 C 748.753906 81.007812 747.722656 81.074219 746.695312 81.210938 C 745.667969 81.34375 744.65625 81.546875 743.652344 81.816406 C 742.652344 82.082031 741.675781 82.414062 740.71875 82.8125 C 739.761719 83.207031 738.832031 83.664062 737.9375 84.183594 C 737.039062 84.703125 736.179688 85.277344 735.359375 85.90625 C 734.535156 86.539062 733.757812 87.21875 733.027344 87.953125 C 732.292969 88.683594 731.613281 89.460938 730.980469 90.285156 C 730.351562 91.105469 729.777344 91.964844 729.257812 92.863281 Z M 729.257812 92.863281 " fill-opacity="1" fill-rule="nonzero"/></g><g clip-path="url(#43519eb698)"><path fill="#f4f4f4" d="M 648.917969 386.097656 L 660.039062 363.914062 L 686.742188 310.640625 L 719.042969 246.203125 L 746.960938 190.519531 C 751.464844 181.527344 756.246094 172.621094 760.5 163.503906 C 760.558594 163.382812 760.625 163.257812 760.683594 163.136719 L 739.339844 163.136719 L 750.460938 185.320312 L 777.164062 238.589844 L 809.464844 303.03125 L 837.378906 358.714844 L 846.527344 376.964844 C 847.957031 379.8125 849.164062 383.0625 850.921875 385.726562 C 850.988281 385.847656 851.050781 385.96875 851.105469 386.097656 C 851.675781 387.230469 855.351562 387.800781 856.191406 387.945312 C 859.023438 388.410156 861.863281 388.511719 864.722656 388.253906 C 866.558594 388.082031 874.03125 387.601562 872.453125 384.453125 L 861.332031 362.269531 L 834.628906 309 L 802.328125 244.558594 L 774.410156 188.875 L 765.261719 170.625 C 763.847656 167.804688 762.667969 164.464844 760.871094 161.863281 C 760.800781 161.742188 760.738281 161.621094 760.683594 161.492188 C 760.140625 160.410156 757.71875 160.101562 756.71875 159.886719 C 754.507812 159.414062 752.273438 159.195312 750.011719 159.222656 C 748.140625 159.234375 746.277344 159.375 744.425781 159.644531 C 743.59375 159.773438 739.902344 160.371094 739.339844 161.492188 L 728.21875 183.675781 L 701.515625 236.949219 L 669.210938 301.386719 L 641.296875 357.070312 C 636.785156 366.074219 632.234375 375.0625 627.757812 384.082031 C 627.695312 384.207031 627.632812 384.328125 627.574219 384.453125 C 625.988281 387.609375 633.554688 388.140625 635.304688 388.253906 C 638.160156 388.507812 641.003906 388.402344 643.832031 387.945312 C 645.136719 387.703125 648.261719 387.40625 648.917969 386.097656 Z M 648.917969 386.097656 " fill-opacity="1" fill-rule="nonzero"/></g></svg>