<svg xmlns="http://www.w3.org/2000/svg" xmlns:xlink="http://www.w3.org/1999/xlink" width="2000" zoomAndPan="magnify" viewBox="0 0 1500 525.000007" height="700" preserveAspectRatio="xMidYMid meet" version="1.0"><defs><g/><clipPath id="514c18a31f"><path d="M 1.425781 0 L 1498.574219 0 L 1498.574219 524 L 1.425781 524 Z M 1.425781 0 " clip-rule="nonzero"/></clipPath><clipPath id="73c5d1431d"><path d="M 200 89.289062 L 569 89.289062 L 569 414.171875 L 200 414.171875 Z M 200 89.289062 " clip-rule="nonzero"/></clipPath><clipPath id="03128b6355"><path d="M 262 147.285156 L 508 147.285156 L 508 376.351562 L 262 376.351562 Z M 262 147.285156 " clip-rule="nonzero"/></clipPath><clipPath id="53f1841ee4"><rect x="0" width="504" y="0" height="396"/></clipPath></defs><g clip-path="url(#514c18a31f)"><path fill="#ffffff" d="M 1.425781 0 L 1498.574219 0 L 1498.574219 524 L 1.425781 524 Z M 1.425781 0 " fill-opacity="1" fill-rule="nonzero"/><path fill="#ffffff" d="M 1.425781 0 L 1498.574219 0 L 1498.574219 524 L 1.425781 524 Z M 1.425781 0 " fill-opacity="1" fill-rule="nonzero"/></g><g clip-path="url(#73c5d1431d)"><path fill="#ff751f" d="M 364.121094 101.140625 L 203.925781 378.613281 C 203.40625 379.511719 202.949219 380.4375 202.550781 381.394531 C 202.15625 382.351562 201.820312 383.328125 201.554688 384.332031 C 201.285156 385.332031 201.082031 386.34375 200.949219 387.371094 C 200.8125 388.398438 200.746094 389.429688 200.742188 390.46875 C 200.742188 391.503906 200.8125 392.535156 200.945312 393.5625 C 201.082031 394.589844 201.28125 395.605469 201.550781 396.605469 C 201.820312 397.605469 202.152344 398.585938 202.546875 399.542969 C 202.945312 400.5 203.402344 401.425781 203.917969 402.324219 C 204.4375 403.21875 205.011719 404.082031 205.640625 404.902344 C 206.273438 405.722656 206.953125 406.5 207.6875 407.234375 C 208.417969 407.964844 209.195312 408.648438 210.019531 409.277344 C 210.839844 409.910156 211.699219 410.484375 212.597656 411 C 213.496094 411.519531 214.421875 411.976562 215.378906 412.375 C 216.335938 412.769531 217.316406 413.101562 218.316406 413.371094 C 219.316406 413.636719 220.332031 413.839844 221.359375 413.972656 C 222.386719 414.109375 223.417969 414.175781 224.453125 414.175781 L 303.875 414.175781 C 304.910156 414.175781 305.941406 414.109375 306.96875 413.972656 C 307.992188 413.835938 309.007812 413.636719 310.007812 413.367188 C 311.007812 413.097656 311.988281 412.765625 312.945312 412.371094 C 313.902344 411.972656 314.828125 411.515625 315.726562 411 C 316.621094 410.480469 317.480469 409.90625 318.304688 409.277344 C 319.125 408.644531 319.902344 407.964844 320.636719 407.234375 C 321.367188 406.5 322.050781 405.722656 322.679688 404.902344 C 323.3125 404.082031 323.886719 403.222656 324.402344 402.324219 L 364.121094 333.539062 C 364.636719 332.640625 365.210938 331.78125 365.84375 330.957031 C 366.472656 330.136719 367.15625 329.359375 367.886719 328.625 C 368.621094 327.894531 369.398438 327.210938 370.21875 326.582031 C 371.039062 325.949219 371.898438 325.375 372.796875 324.859375 C 373.695312 324.339844 374.621094 323.882812 375.578125 323.488281 C 376.535156 323.089844 377.515625 322.757812 378.515625 322.488281 C 379.515625 322.222656 380.53125 322.019531 381.554688 321.882812 C 382.582031 321.75 383.613281 321.679688 384.652344 321.679688 C 385.6875 321.679688 386.71875 321.75 387.746094 321.882812 C 388.773438 322.019531 389.785156 322.222656 390.785156 322.488281 C 391.789062 322.757812 392.765625 323.089844 393.722656 323.488281 C 394.679688 323.882812 395.609375 324.339844 396.503906 324.859375 C 397.402344 325.375 398.261719 325.949219 399.082031 326.582031 C 399.90625 327.210938 400.683594 327.894531 401.414062 328.625 C 402.148438 329.359375 402.828125 330.136719 403.457031 330.957031 C 404.089844 331.78125 404.664062 332.640625 405.179688 333.539062 L 444.890625 402.316406 C 445.410156 403.214844 445.984375 404.074219 446.613281 404.894531 C 447.242188 405.71875 447.925781 406.496094 448.65625 407.226562 C 449.390625 407.960938 450.167969 408.640625 450.988281 409.273438 C 451.8125 409.902344 452.671875 410.476562 453.566406 410.996094 C 454.464844 411.515625 455.390625 411.972656 456.347656 412.367188 C 457.304688 412.765625 458.285156 413.097656 459.285156 413.367188 C 460.285156 413.632812 461.300781 413.835938 462.328125 413.972656 C 463.351562 414.109375 464.386719 414.175781 465.421875 414.175781 L 544.855469 414.175781 C 545.371094 414.175781 545.890625 414.160156 546.40625 414.125 C 546.921875 414.089844 547.4375 414.039062 547.949219 413.972656 C 548.460938 413.90625 548.972656 413.820312 549.480469 413.71875 C 549.988281 413.617188 550.492188 413.5 550.992188 413.367188 C 551.492188 413.234375 551.984375 413.082031 552.476562 412.917969 C 552.964844 412.75 553.449219 412.566406 553.925781 412.371094 C 554.40625 412.171875 554.875 411.957031 555.339844 411.730469 C 555.804688 411.5 556.257812 411.257812 556.707031 410.996094 C 557.15625 410.738281 557.59375 410.464844 558.023438 410.179688 C 558.453125 409.890625 558.875 409.589844 559.285156 409.273438 C 559.695312 408.960938 560.097656 408.632812 560.484375 408.289062 C 560.875 407.949219 561.25 407.59375 561.617188 407.230469 C 561.984375 406.863281 562.335938 406.484375 562.675781 406.097656 C 563.019531 405.707031 563.347656 405.308594 563.660156 404.898438 C 563.976562 404.488281 564.277344 404.066406 564.566406 403.636719 C 564.851562 403.207031 565.125 402.765625 565.382812 402.320312 C 565.640625 401.871094 565.886719 401.414062 566.113281 400.953125 C 566.34375 400.488281 566.558594 400.015625 566.753906 399.539062 C 566.953125 399.058594 567.136719 398.578125 567.300781 398.085938 C 567.46875 397.597656 567.617188 397.101562 567.75 396.601562 C 567.886719 396.101562 568.003906 395.597656 568.105469 395.089844 C 568.207031 394.582031 568.289062 394.074219 568.355469 393.5625 C 568.425781 393.046875 568.476562 392.53125 568.507812 392.015625 C 568.542969 391.5 568.558594 390.984375 568.558594 390.464844 C 568.558594 389.949219 568.542969 389.433594 568.507812 388.914062 C 568.476562 388.398438 568.425781 387.886719 568.359375 387.371094 C 568.289062 386.859375 568.207031 386.347656 568.105469 385.839844 C 568.003906 385.335938 567.886719 384.832031 567.753906 384.332031 C 567.617188 383.832031 567.46875 383.335938 567.300781 382.847656 C 567.136719 382.355469 566.953125 381.871094 566.757812 381.394531 C 566.558594 380.917969 566.34375 380.445312 566.117188 379.980469 C 565.886719 379.515625 565.644531 379.0625 565.386719 378.613281 L 405.179688 101.140625 C 404.664062 100.242188 404.089844 99.382812 403.457031 98.5625 C 402.828125 97.742188 402.148438 96.964844 401.414062 96.230469 C 400.683594 95.496094 399.90625 94.816406 399.082031 94.183594 C 398.261719 93.554688 397.402344 92.980469 396.503906 92.460938 C 395.609375 91.945312 394.679688 91.488281 393.722656 91.089844 C 392.765625 90.695312 391.789062 90.363281 390.785156 90.09375 C 389.785156 89.824219 388.773438 89.625 387.746094 89.488281 C 386.71875 89.351562 385.6875 89.285156 384.652344 89.285156 C 383.613281 89.285156 382.582031 89.351562 381.554688 89.488281 C 380.53125 89.625 379.515625 89.824219 378.515625 90.09375 C 377.515625 90.363281 376.535156 90.695312 375.578125 91.089844 C 374.621094 91.488281 373.695312 91.945312 372.796875 92.460938 C 371.898438 92.980469 371.039062 93.554688 370.21875 94.183594 C 369.398438 94.816406 368.621094 95.496094 367.886719 96.230469 C 367.15625 96.964844 366.472656 97.742188 365.84375 98.5625 C 365.210938 99.382812 364.636719 100.242188 364.121094 101.140625 Z M 364.121094 101.140625 " fill-opacity="1" fill-rule="nonzero"/></g><g clip-path="url(#03128b6355)"><path fill="#f4f4f4" d="M 283.777344 374.269531 L 294.898438 352.085938 L 321.601562 298.816406 L 353.90625 234.378906 L 381.820312 178.691406 C 386.328125 169.703125 391.109375 160.796875 395.363281 151.679688 C 395.417969 151.554688 395.484375 151.433594 395.546875 151.3125 L 374.199219 151.3125 L 385.320312 173.496094 L 412.023438 226.765625 L 444.324219 291.203125 L 472.242188 346.890625 L 481.390625 365.140625 C 482.816406 367.988281 484.023438 371.238281 485.78125 373.902344 C 485.851562 374.019531 485.910156 374.144531 485.964844 374.269531 C 486.535156 375.40625 490.210938 375.976562 491.054688 376.117188 C 493.882812 376.582031 496.726562 376.6875 499.582031 376.429688 C 501.421875 376.257812 508.890625 375.777344 507.3125 372.625 L 496.191406 350.441406 L 469.488281 297.175781 L 437.1875 232.734375 L 409.273438 177.050781 L 400.125 158.796875 C 398.710938 155.980469 397.527344 152.636719 395.730469 150.035156 C 395.660156 149.917969 395.597656 149.792969 395.546875 149.667969 C 395.003906 148.582031 392.578125 148.277344 391.578125 148.0625 C 389.367188 147.589844 387.132812 147.367188 384.871094 147.398438 C 383 147.40625 381.140625 147.550781 379.285156 147.820312 C 378.453125 147.949219 374.761719 148.542969 374.199219 149.667969 L 363.078125 171.851562 L 336.375 225.121094 L 304.074219 289.558594 L 276.160156 345.246094 C 271.648438 354.25 267.09375 363.234375 262.617188 372.257812 C 262.558594 372.382812 262.496094 372.503906 262.433594 372.625 C 260.851562 375.785156 268.414062 376.3125 270.164062 376.429688 C 273.019531 376.679688 275.863281 376.578125 278.691406 376.121094 C 279.996094 375.878906 283.125 375.578125 283.78125 374.273438 Z M 283.777344 374.269531 " fill-opacity="1" fill-rule="nonzero"/></g><g transform="matrix(1, 0, 0, 1, 689, 51)"><g clip-path="url(#53f1841ee4)"><g fill="#000000" fill-opacity="1"><g transform="translate(0.653315, 186.962112)"><g><path d="M 89.09375 -50.21875 L 67.859375 -105.234375 C 67.234375 -106.867188 66.570312 -108.769531 65.875 -110.9375 C 65.1875 -113.113281 64.523438 -115.429688 63.890625 -117.890625 C 62.578125 -112.785156 61.226562 -108.535156 59.84375 -105.140625 L 38.609375 -50.21875 Z M 127.234375 0 L 113.078125 0 C 111.429688 0 110.101562 -0.40625 109.09375 -1.21875 C 108.09375 -2.039062 107.34375 -3.082031 106.84375 -4.34375 L 94.1875 -37 L 33.5 -37 L 20.859375 -4.34375 C 20.484375 -3.207031 19.757812 -2.195312 18.6875 -1.3125 C 17.613281 -0.4375 16.289062 0 14.71875 0 L 0.5625 0 L 54.640625 -135.25 L 73.140625 -135.25 Z M 127.234375 0 "/></g></g></g><g fill="#000000" fill-opacity="1"><g transform="translate(117.49801, 186.962112)"><g><path d="M 69 -79.84375 C 68.238281 -78.457031 67.070312 -77.765625 65.5 -77.765625 C 64.550781 -77.765625 63.476562 -78.109375 62.28125 -78.796875 C 61.09375 -79.492188 59.632812 -80.265625 57.90625 -81.109375 C 56.175781 -81.960938 54.113281 -82.75 51.71875 -83.46875 C 49.332031 -84.195312 46.503906 -84.5625 43.234375 -84.5625 C 40.398438 -84.5625 37.847656 -84.195312 35.578125 -83.46875 C 33.316406 -82.75 31.382812 -81.757812 29.78125 -80.5 C 28.175781 -79.25 26.945312 -77.789062 26.09375 -76.125 C 25.25 -74.457031 24.828125 -72.644531 24.828125 -70.6875 C 24.828125 -68.238281 25.53125 -66.195312 26.9375 -64.5625 C 28.351562 -62.925781 30.222656 -61.507812 32.546875 -60.3125 C 34.878906 -59.113281 37.523438 -58.054688 40.484375 -57.140625 C 43.441406 -56.234375 46.476562 -55.257812 49.59375 -54.21875 C 52.707031 -53.1875 55.742188 -52.039062 58.703125 -50.78125 C 61.660156 -49.519531 64.300781 -47.945312 66.625 -46.0625 C 68.957031 -44.175781 70.832031 -41.863281 72.25 -39.125 C 73.664062 -36.382812 74.375 -33.097656 74.375 -29.265625 C 74.375 -24.859375 73.585938 -20.78125 72.015625 -17.03125 C 70.441406 -13.289062 68.113281 -10.050781 65.03125 -7.3125 C 61.945312 -4.570312 58.171875 -2.414062 53.703125 -0.84375 C 49.234375 0.726562 44.070312 1.515625 38.21875 1.515625 C 31.550781 1.515625 25.507812 0.429688 20.09375 -1.734375 C 14.6875 -3.910156 10.097656 -6.695312 6.328125 -10.09375 L 10.28125 -16.515625 C 10.789062 -17.335938 11.390625 -17.96875 12.078125 -18.40625 C 12.773438 -18.84375 13.65625 -19.0625 14.71875 -19.0625 C 15.851562 -19.0625 17.050781 -18.617188 18.3125 -17.734375 C 19.570312 -16.859375 21.097656 -15.882812 22.890625 -14.8125 C 24.679688 -13.75 26.863281 -12.773438 29.4375 -11.890625 C 32.019531 -11.015625 35.234375 -10.578125 39.078125 -10.578125 C 42.347656 -10.578125 45.207031 -11 47.65625 -11.84375 C 50.113281 -12.695312 52.160156 -13.84375 53.796875 -15.28125 C 55.429688 -16.726562 56.640625 -18.394531 57.421875 -20.28125 C 58.210938 -22.175781 58.609375 -24.191406 58.609375 -26.328125 C 58.609375 -28.972656 57.898438 -31.160156 56.484375 -32.890625 C 55.066406 -34.617188 53.191406 -36.097656 50.859375 -37.328125 C 48.535156 -38.554688 45.878906 -39.625 42.890625 -40.53125 C 39.898438 -41.445312 36.847656 -42.40625 33.734375 -43.40625 C 30.617188 -44.414062 27.566406 -45.566406 24.578125 -46.859375 C 21.597656 -48.148438 18.941406 -49.769531 16.609375 -51.71875 C 14.285156 -53.664062 12.414062 -56.070312 11 -58.9375 C 9.582031 -61.800781 8.875 -65.28125 8.875 -69.375 C 8.875 -73.019531 9.628906 -76.523438 11.140625 -79.890625 C 12.648438 -83.253906 14.847656 -86.210938 17.734375 -88.765625 C 20.628906 -91.316406 24.1875 -93.347656 28.40625 -94.859375 C 32.625 -96.367188 37.4375 -97.125 42.84375 -97.125 C 49.132812 -97.125 54.78125 -96.128906 59.78125 -94.140625 C 64.789062 -92.160156 69.117188 -89.441406 72.765625 -85.984375 Z M 69 -79.84375 "/></g></g></g><g fill="#000000" fill-opacity="1"><g transform="translate(188.284315, 186.962112)"><g><path d="M 42.65625 1.515625 C 35.101562 1.515625 29.296875 -0.59375 25.234375 -4.8125 C 21.179688 -9.03125 19.15625 -15.101562 19.15625 -23.03125 L 19.15625 -81.546875 L 7.640625 -81.546875 C 6.640625 -81.546875 5.789062 -81.84375 5.09375 -82.4375 C 4.40625 -83.039062 4.0625 -83.972656 4.0625 -85.234375 L 4.0625 -91.921875 L 19.71875 -93.90625 L 23.59375 -123.453125 C 23.78125 -124.398438 24.203125 -125.171875 24.859375 -125.765625 C 25.523438 -126.359375 26.394531 -126.65625 27.46875 -126.65625 L 35.953125 -126.65625 L 35.953125 -93.71875 L 63.609375 -93.71875 L 63.609375 -81.546875 L 35.953125 -81.546875 L 35.953125 -24.15625 C 35.953125 -20.132812 36.925781 -17.144531 38.875 -15.1875 C 40.832031 -13.238281 43.351562 -12.265625 46.4375 -12.265625 C 48.195312 -12.265625 49.722656 -12.5 51.015625 -12.96875 C 52.304688 -13.445312 53.421875 -13.96875 54.359375 -14.53125 C 55.304688 -15.101562 56.109375 -15.625 56.765625 -16.09375 C 57.429688 -16.5625 58.015625 -16.796875 58.515625 -16.796875 C 59.398438 -16.796875 60.1875 -16.265625 60.875 -15.203125 L 65.78125 -7.171875 C 62.882812 -4.460938 59.390625 -2.335938 55.296875 -0.796875 C 51.210938 0.742188 47 1.515625 42.65625 1.515625 Z M 42.65625 1.515625 "/></g></g></g><g fill="#000000" fill-opacity="1"><g transform="translate(245.007729, 186.962112)"><g><path d="M 29.265625 -76.453125 C 32.273438 -82.992188 35.984375 -88.101562 40.390625 -91.78125 C 44.796875 -95.46875 50.175781 -97.3125 56.53125 -97.3125 C 58.550781 -97.3125 60.488281 -97.085938 62.34375 -96.640625 C 64.195312 -96.203125 65.847656 -95.515625 67.296875 -94.578125 L 66.0625 -82.015625 C 65.6875 -80.441406 64.742188 -79.65625 63.234375 -79.65625 C 62.359375 -79.65625 61.066406 -79.84375 59.359375 -80.21875 C 57.660156 -80.601562 55.742188 -80.796875 53.609375 -80.796875 C 50.585938 -80.796875 47.894531 -80.351562 45.53125 -79.46875 C 43.175781 -78.59375 41.070312 -77.285156 39.21875 -75.546875 C 37.363281 -73.816406 35.695312 -71.675781 34.21875 -69.125 C 32.738281 -66.582031 31.398438 -63.675781 30.203125 -60.40625 L 30.203125 0 L 13.3125 0 L 13.3125 -95.609375 L 22.9375 -95.609375 C 24.757812 -95.609375 26.015625 -95.257812 26.703125 -94.5625 C 27.398438 -93.875 27.875 -92.679688 28.125 -90.984375 Z M 29.265625 -76.453125 "/></g></g></g><g fill="#000000" fill-opacity="1"><g transform="translate(302.769347, 186.962112)"><g><path d="M 53.609375 -97.125 C 60.585938 -97.125 66.878906 -95.957031 72.484375 -93.625 C 78.085938 -91.300781 82.867188 -88 86.828125 -83.71875 C 90.796875 -79.4375 93.832031 -74.257812 95.9375 -68.1875 C 98.050781 -62.113281 99.109375 -55.335938 99.109375 -47.859375 C 99.109375 -40.304688 98.050781 -33.507812 95.9375 -27.46875 C 93.832031 -21.425781 90.796875 -16.265625 86.828125 -11.984375 C 82.867188 -7.703125 78.085938 -4.410156 72.484375 -2.109375 C 66.878906 0.179688 60.585938 1.328125 53.609375 1.328125 C 46.554688 1.328125 40.210938 0.179688 34.578125 -2.109375 C 28.953125 -4.410156 24.15625 -7.703125 20.1875 -11.984375 C 16.226562 -16.265625 13.191406 -21.425781 11.078125 -27.46875 C 8.972656 -33.507812 7.921875 -40.304688 7.921875 -47.859375 C 7.921875 -55.335938 8.972656 -62.113281 11.078125 -68.1875 C 13.191406 -74.257812 16.226562 -79.4375 20.1875 -83.71875 C 24.15625 -88 28.953125 -91.300781 34.578125 -93.625 C 40.210938 -95.957031 46.554688 -97.125 53.609375 -97.125 Z M 53.609375 -11.796875 C 63.046875 -11.796875 70.09375 -14.957031 74.75 -21.28125 C 79.40625 -27.601562 81.734375 -36.425781 81.734375 -47.75 C 81.734375 -59.144531 79.40625 -68.019531 74.75 -74.375 C 70.09375 -80.726562 63.046875 -83.90625 53.609375 -83.90625 C 48.828125 -83.90625 44.65625 -83.085938 41.09375 -81.453125 C 37.539062 -79.816406 34.582031 -77.457031 32.21875 -74.375 C 29.863281 -71.289062 28.101562 -67.5 26.9375 -63 C 25.78125 -58.5 25.203125 -53.414062 25.203125 -47.75 C 25.203125 -36.425781 27.546875 -27.601562 32.234375 -21.28125 C 36.921875 -14.957031 44.046875 -11.796875 53.609375 -11.796875 Z M 53.609375 -11.796875 "/></g></g></g><g fill="#000000" fill-opacity="1"><g transform="translate(0.653315, 354.598565)"><g><path d="M 86.453125 -114.109375 C 85.890625 -113.160156 85.273438 -112.453125 84.609375 -111.984375 C 83.953125 -111.515625 83.148438 -111.28125 82.203125 -111.28125 C 81.140625 -111.28125 79.882812 -111.8125 78.4375 -112.875 C 76.988281 -113.945312 75.175781 -115.128906 73 -116.421875 C 70.832031 -117.710938 68.222656 -118.890625 65.171875 -119.953125 C 62.117188 -121.023438 58.421875 -121.5625 54.078125 -121.5625 C 49.992188 -121.5625 46.394531 -121.007812 43.28125 -119.90625 C 40.164062 -118.8125 37.550781 -117.316406 35.4375 -115.421875 C 33.332031 -113.535156 31.742188 -111.316406 30.671875 -108.765625 C 29.597656 -106.222656 29.0625 -103.472656 29.0625 -100.515625 C 29.0625 -96.742188 29.988281 -93.613281 31.84375 -91.125 C 33.707031 -88.644531 36.164062 -86.519531 39.21875 -84.75 C 42.269531 -82.988281 45.726562 -81.460938 49.59375 -80.171875 C 53.46875 -78.890625 57.429688 -77.554688 61.484375 -76.171875 C 65.546875 -74.785156 69.507812 -73.226562 73.375 -71.5 C 77.25 -69.769531 80.710938 -67.582031 83.765625 -64.9375 C 86.816406 -62.289062 89.269531 -59.046875 91.125 -55.203125 C 92.976562 -51.367188 93.90625 -46.65625 93.90625 -41.0625 C 93.90625 -35.144531 92.898438 -29.585938 90.890625 -24.390625 C 88.878906 -19.203125 85.9375 -14.6875 82.0625 -10.84375 C 78.195312 -7.007812 73.445312 -3.988281 67.8125 -1.78125 C 62.175781 0.414062 55.773438 1.515625 48.609375 1.515625 C 39.796875 1.515625 31.800781 -0.0703125 24.625 -3.25 C 17.457031 -6.425781 11.328125 -10.722656 6.234375 -16.140625 L 11.515625 -24.828125 C 12.015625 -25.515625 12.625 -26.09375 13.34375 -26.5625 C 14.070312 -27.039062 14.878906 -27.28125 15.765625 -27.28125 C 16.578125 -27.28125 17.503906 -26.945312 18.546875 -26.28125 C 19.585938 -25.625 20.765625 -24.789062 22.078125 -23.78125 C 23.398438 -22.78125 24.910156 -21.679688 26.609375 -20.484375 C 28.316406 -19.285156 30.253906 -18.179688 32.421875 -17.171875 C 34.585938 -16.171875 37.054688 -15.335938 39.828125 -14.671875 C 42.597656 -14.015625 45.710938 -13.6875 49.171875 -13.6875 C 53.515625 -13.6875 57.382812 -14.28125 60.78125 -15.46875 C 64.175781 -16.664062 67.050781 -18.347656 69.40625 -20.515625 C 71.769531 -22.691406 73.582031 -25.289062 74.84375 -28.3125 C 76.101562 -31.332031 76.734375 -34.695312 76.734375 -38.40625 C 76.734375 -42.5 75.804688 -45.847656 73.953125 -48.453125 C 72.097656 -51.066406 69.660156 -53.253906 66.640625 -55.015625 C 63.617188 -56.785156 60.15625 -58.28125 56.25 -59.5 C 52.351562 -60.726562 48.390625 -61.988281 44.359375 -63.28125 C 40.328125 -64.570312 36.359375 -66.066406 32.453125 -67.765625 C 28.554688 -69.460938 25.097656 -71.664062 22.078125 -74.375 C 19.066406 -77.082031 16.628906 -80.460938 14.765625 -84.515625 C 12.910156 -88.578125 11.984375 -93.597656 11.984375 -99.578125 C 11.984375 -104.359375 12.910156 -108.984375 14.765625 -113.453125 C 16.628906 -117.921875 19.335938 -121.882812 22.890625 -125.34375 C 26.441406 -128.800781 30.8125 -131.566406 36 -133.640625 C 41.195312 -135.722656 47.160156 -136.765625 53.890625 -136.765625 C 61.441406 -136.765625 68.316406 -135.566406 74.515625 -133.171875 C 80.710938 -130.785156 86.171875 -127.328125 90.890625 -122.796875 Z M 86.453125 -114.109375 "/></g></g></g><g fill="#000000" fill-opacity="1"><g transform="translate(92.10929, 354.598565)"><g><path d="M 42.65625 1.515625 C 35.101562 1.515625 29.296875 -0.59375 25.234375 -4.8125 C 21.179688 -9.03125 19.15625 -15.101562 19.15625 -23.03125 L 19.15625 -81.546875 L 7.640625 -81.546875 C 6.640625 -81.546875 5.789062 -81.84375 5.09375 -82.4375 C 4.40625 -83.039062 4.0625 -83.972656 4.0625 -85.234375 L 4.0625 -91.921875 L 19.71875 -93.90625 L 23.59375 -123.453125 C 23.78125 -124.398438 24.203125 -125.171875 24.859375 -125.765625 C 25.523438 -126.359375 26.394531 -126.65625 27.46875 -126.65625 L 35.953125 -126.65625 L 35.953125 -93.71875 L 63.609375 -93.71875 L 63.609375 -81.546875 L 35.953125 -81.546875 L 35.953125 -24.15625 C 35.953125 -20.132812 36.925781 -17.144531 38.875 -15.1875 C 40.832031 -13.238281 43.351562 -12.265625 46.4375 -12.265625 C 48.195312 -12.265625 49.722656 -12.5 51.015625 -12.96875 C 52.304688 -13.445312 53.421875 -13.96875 54.359375 -14.53125 C 55.304688 -15.101562 56.109375 -15.625 56.765625 -16.09375 C 57.429688 -16.5625 58.015625 -16.796875 58.515625 -16.796875 C 59.398438 -16.796875 60.1875 -16.265625 60.875 -15.203125 L 65.78125 -7.171875 C 62.882812 -4.460938 59.390625 -2.335938 55.296875 -0.796875 C 51.210938 0.742188 47 1.515625 42.65625 1.515625 Z M 42.65625 1.515625 "/></g></g></g><g fill="#000000" fill-opacity="1"><g transform="translate(148.832705, 354.598565)"><g><path d="M 65.125 -43.03125 C 57.382812 -42.78125 50.789062 -42.164062 45.34375 -41.1875 C 39.90625 -40.21875 35.472656 -38.945312 32.046875 -37.375 C 28.617188 -35.800781 26.132812 -33.941406 24.59375 -31.796875 C 23.050781 -29.660156 22.28125 -27.273438 22.28125 -24.640625 C 22.28125 -22.117188 22.6875 -19.945312 23.5 -18.125 C 24.320312 -16.300781 25.4375 -14.804688 26.84375 -13.640625 C 28.257812 -12.472656 29.925781 -11.617188 31.84375 -11.078125 C 33.769531 -10.546875 35.832031 -10.28125 38.03125 -10.28125 C 40.988281 -10.28125 43.691406 -10.578125 46.140625 -11.171875 C 48.597656 -11.773438 50.910156 -12.644531 53.078125 -13.78125 C 55.253906 -14.914062 57.332031 -16.269531 59.3125 -17.84375 C 61.300781 -19.414062 63.238281 -21.207031 65.125 -23.21875 Z M 10.859375 -82.109375 C 16.140625 -87.210938 21.832031 -91.019531 27.9375 -93.53125 C 34.039062 -96.050781 40.804688 -97.3125 48.234375 -97.3125 C 53.578125 -97.3125 58.320312 -96.425781 62.46875 -94.65625 C 66.625 -92.894531 70.117188 -90.441406 72.953125 -87.296875 C 75.785156 -84.148438 77.925781 -80.34375 79.375 -75.875 C 80.820312 -71.414062 81.546875 -66.507812 81.546875 -61.15625 L 81.546875 0 L 74.09375 0 C 72.457031 0 71.195312 -0.265625 70.3125 -0.796875 C 69.4375 -1.335938 68.742188 -2.394531 68.234375 -3.96875 L 66.34375 -13.03125 C 63.832031 -10.695312 61.378906 -8.632812 58.984375 -6.84375 C 56.597656 -5.050781 54.082031 -3.539062 51.4375 -2.3125 C 48.789062 -1.082031 45.972656 -0.140625 42.984375 0.515625 C 40.003906 1.179688 36.6875 1.515625 33.03125 1.515625 C 29.320312 1.515625 25.832031 0.992188 22.5625 -0.046875 C 19.289062 -1.085938 16.441406 -2.644531 14.015625 -4.71875 C 11.585938 -6.789062 9.664062 -9.414062 8.25 -12.59375 C 6.84375 -15.769531 6.140625 -19.53125 6.140625 -23.875 C 6.140625 -27.65625 7.175781 -31.289062 9.25 -34.78125 C 11.320312 -38.269531 14.6875 -41.367188 19.34375 -44.078125 C 24 -46.785156 30.070312 -49.003906 37.5625 -50.734375 C 45.050781 -52.460938 54.238281 -53.453125 65.125 -53.703125 L 65.125 -61.15625 C 65.125 -68.582031 63.519531 -74.195312 60.3125 -78 C 57.101562 -81.8125 52.414062 -83.71875 46.25 -83.71875 C 42.09375 -83.71875 38.613281 -83.195312 35.8125 -82.15625 C 33.019531 -81.125 30.597656 -79.960938 28.546875 -78.671875 C 26.503906 -77.378906 24.742188 -76.210938 23.265625 -75.171875 C 21.785156 -74.140625 20.320312 -73.625 18.875 -73.625 C 17.738281 -73.625 16.757812 -73.921875 15.9375 -74.515625 C 15.125 -75.109375 14.4375 -75.847656 13.875 -76.734375 Z M 10.859375 -82.109375 "/></g></g></g><g fill="#000000" fill-opacity="1"><g transform="translate(231.699885, 354.598565)"><g><path d="M 29.265625 -76.453125 C 32.273438 -82.992188 35.984375 -88.101562 40.390625 -91.78125 C 44.796875 -95.46875 50.175781 -97.3125 56.53125 -97.3125 C 58.550781 -97.3125 60.488281 -97.085938 62.34375 -96.640625 C 64.195312 -96.203125 65.847656 -95.515625 67.296875 -94.578125 L 66.0625 -82.015625 C 65.6875 -80.441406 64.742188 -79.65625 63.234375 -79.65625 C 62.359375 -79.65625 61.066406 -79.84375 59.359375 -80.21875 C 57.660156 -80.601562 55.742188 -80.796875 53.609375 -80.796875 C 50.585938 -80.796875 47.894531 -80.351562 45.53125 -79.46875 C 43.175781 -78.59375 41.070312 -77.285156 39.21875 -75.546875 C 37.363281 -73.816406 35.695312 -71.675781 34.21875 -69.125 C 32.738281 -66.582031 31.398438 -63.675781 30.203125 -60.40625 L 30.203125 0 L 13.3125 0 L 13.3125 -95.609375 L 22.9375 -95.609375 C 24.757812 -95.609375 26.015625 -95.257812 26.703125 -94.5625 C 27.398438 -93.875 27.875 -92.679688 28.125 -90.984375 Z M 29.265625 -76.453125 "/></g></g></g><g fill="#000000" fill-opacity="1"><g transform="translate(289.461516, 354.598565)"><g><path d="M 42.65625 1.515625 C 35.101562 1.515625 29.296875 -0.59375 25.234375 -4.8125 C 21.179688 -9.03125 19.15625 -15.101562 19.15625 -23.03125 L 19.15625 -81.546875 L 7.640625 -81.546875 C 6.640625 -81.546875 5.789062 -81.84375 5.09375 -82.4375 C 4.40625 -83.039062 4.0625 -83.972656 4.0625 -85.234375 L 4.0625 -91.921875 L 19.71875 -93.90625 L 23.59375 -123.453125 C 23.78125 -124.398438 24.203125 -125.171875 24.859375 -125.765625 C 25.523438 -126.359375 26.394531 -126.65625 27.46875 -126.65625 L 35.953125 -126.65625 L 35.953125 -93.71875 L 63.609375 -93.71875 L 63.609375 -81.546875 L 35.953125 -81.546875 L 35.953125 -24.15625 C 35.953125 -20.132812 36.925781 -17.144531 38.875 -15.1875 C 40.832031 -13.238281 43.351562 -12.265625 46.4375 -12.265625 C 48.195312 -12.265625 49.722656 -12.5 51.015625 -12.96875 C 52.304688 -13.445312 53.421875 -13.96875 54.359375 -14.53125 C 55.304688 -15.101562 56.109375 -15.625 56.765625 -16.09375 C 57.429688 -16.5625 58.015625 -16.796875 58.515625 -16.796875 C 59.398438 -16.796875 60.1875 -16.265625 60.875 -15.203125 L 65.78125 -7.171875 C 62.882812 -4.460938 59.390625 -2.335938 55.296875 -0.796875 C 51.210938 0.742188 47 1.515625 42.65625 1.515625 Z M 42.65625 1.515625 "/></g></g></g><g fill="#000000" fill-opacity="1"><g transform="translate(346.184916, 354.598565)"><g><path d="M 77.296875 -58.234375 C 77.296875 -62.128906 76.742188 -65.695312 75.640625 -68.9375 C 74.546875 -72.1875 72.941406 -74.988281 70.828125 -77.34375 C 68.722656 -79.707031 66.160156 -81.53125 63.140625 -82.8125 C 60.117188 -84.101562 56.691406 -84.75 52.859375 -84.75 C 44.796875 -84.75 38.421875 -82.40625 33.734375 -77.71875 C 29.046875 -73.03125 26.140625 -66.535156 25.015625 -58.234375 Z M 90.890625 -13.40625 C 88.816406 -10.882812 86.332031 -8.695312 83.4375 -6.84375 C 80.539062 -4.988281 77.441406 -3.460938 74.140625 -2.265625 C 70.835938 -1.066406 67.421875 -0.171875 63.890625 0.421875 C 60.367188 1.023438 56.878906 1.328125 53.421875 1.328125 C 46.816406 1.328125 40.726562 0.210938 35.15625 -2.015625 C 29.59375 -4.253906 24.78125 -7.53125 20.71875 -11.84375 C 16.65625 -16.15625 13.488281 -21.488281 11.21875 -27.84375 C 8.957031 -34.195312 7.828125 -41.492188 7.828125 -49.734375 C 7.828125 -56.410156 8.847656 -62.640625 10.890625 -68.421875 C 12.941406 -74.210938 15.882812 -79.234375 19.71875 -83.484375 C 23.5625 -87.734375 28.25 -91.066406 33.78125 -93.484375 C 39.320312 -95.910156 45.554688 -97.125 52.484375 -97.125 C 58.203125 -97.125 63.5 -96.160156 68.375 -94.234375 C 73.25 -92.316406 77.460938 -89.550781 81.015625 -85.9375 C 84.578125 -82.320312 87.363281 -77.851562 89.375 -72.53125 C 91.394531 -67.21875 92.40625 -61.160156 92.40625 -54.359375 C 92.40625 -51.722656 92.117188 -49.960938 91.546875 -49.078125 C 90.984375 -48.191406 89.914062 -47.75 88.34375 -47.75 L 24.4375 -47.75 C 24.632812 -41.71875 25.472656 -36.46875 26.953125 -32 C 28.429688 -27.53125 30.488281 -23.800781 33.125 -20.8125 C 35.769531 -17.820312 38.914062 -15.585938 42.5625 -14.109375 C 46.21875 -12.628906 50.3125 -11.890625 54.84375 -11.890625 C 59.050781 -11.890625 62.679688 -12.375 65.734375 -13.34375 C 68.785156 -14.320312 71.410156 -15.378906 73.609375 -16.515625 C 75.816406 -17.648438 77.660156 -18.703125 79.140625 -19.671875 C 80.617188 -20.648438 81.894531 -21.140625 82.96875 -21.140625 C 84.34375 -21.140625 85.410156 -20.601562 86.171875 -19.53125 Z M 90.890625 -13.40625 "/></g></g></g><g fill="#000000" fill-opacity="1"><g transform="translate(434.903817, 354.598565)"><g><path d="M 29.265625 -76.453125 C 32.273438 -82.992188 35.984375 -88.101562 40.390625 -91.78125 C 44.796875 -95.46875 50.175781 -97.3125 56.53125 -97.3125 C 58.550781 -97.3125 60.488281 -97.085938 62.34375 -96.640625 C 64.195312 -96.203125 65.847656 -95.515625 67.296875 -94.578125 L 66.0625 -82.015625 C 65.6875 -80.441406 64.742188 -79.65625 63.234375 -79.65625 C 62.359375 -79.65625 61.066406 -79.84375 59.359375 -80.21875 C 57.660156 -80.601562 55.742188 -80.796875 53.609375 -80.796875 C 50.585938 -80.796875 47.894531 -80.351562 45.53125 -79.46875 C 43.175781 -78.59375 41.070312 -77.285156 39.21875 -75.546875 C 37.363281 -73.816406 35.695312 -71.675781 34.21875 -69.125 C 32.738281 -66.582031 31.398438 -63.675781 30.203125 -60.40625 L 30.203125 0 L 13.3125 0 L 13.3125 -95.609375 L 22.9375 -95.609375 C 24.757812 -95.609375 26.015625 -95.257812 26.703125 -94.5625 C 27.398438 -93.875 27.875 -92.679688 28.125 -90.984375 Z M 29.265625 -76.453125 "/></g></g></g></g></g></svg>