<svg xmlns="http://www.w3.org/2000/svg" xmlns:xlink="http://www.w3.org/1999/xlink" width="1500" zoomAndPan="magnify" viewBox="0 0 1125 749.999995" height="1000" preserveAspectRatio="xMidYMid meet" version="1.0"><defs><g/><clipPath id="6b1e648da4"><path d="M 88 212.6875 L 472 212.6875 L 472 550.9375 L 88 550.9375 Z M 88 212.6875 " clip-rule="nonzero"/></clipPath><clipPath id="6da87e75ce"><path d="M 159 288.171875 L 401 288.171875 L 401 513.921875 L 159 513.921875 Z M 159 288.171875 " clip-rule="nonzero"/></clipPath><clipPath id="279f0e1da2"><rect x="0" width="494" y="0" height="387"/></clipPath></defs><rect x="-112.5" width="1350" fill="#ffffff" y="-74.999999" height="899.999994" fill-opacity="1"/><rect x="-112.5" width="1350" fill="#ffffff" y="-74.999999" height="899.999994" fill-opacity="1"/><g clip-path="url(#6b1e648da4)"><path fill="#ff751f" d="M 258.359375 225.015625 L 91.714844 513.660156 C 91.175781 514.59375 90.699219 515.554688 90.285156 516.550781 C 89.875 517.546875 89.527344 518.566406 89.25 519.605469 C 88.96875 520.648438 88.757812 521.703125 88.617188 522.769531 C 88.476562 523.839844 88.40625 524.914062 88.40625 525.992188 C 88.40625 527.070312 88.476562 528.140625 88.617188 529.210938 C 88.757812 530.277344 88.964844 531.332031 89.246094 532.375 C 89.523438 533.414062 89.871094 534.433594 90.28125 535.429688 C 90.695312 536.425781 91.171875 537.390625 91.710938 538.324219 C 92.246094 539.257812 92.84375 540.152344 93.5 541.007812 C 94.15625 541.863281 94.867188 542.671875 95.628906 543.433594 C 96.390625 544.195312 97.199219 544.902344 98.054688 545.558594 C 98.910156 546.214844 99.804688 546.8125 100.738281 547.351562 C 101.671875 547.890625 102.636719 548.367188 103.632812 548.777344 C 104.628906 549.191406 105.644531 549.535156 106.6875 549.816406 C 107.726562 550.09375 108.78125 550.304688 109.851562 550.445312 C 110.921875 550.585938 111.992188 550.652344 113.070312 550.652344 L 195.6875 550.652344 C 196.765625 550.652344 197.839844 550.582031 198.90625 550.441406 C 199.972656 550.300781 201.027344 550.089844 202.070312 549.8125 C 203.109375 549.535156 204.128906 549.1875 205.125 548.773438 C 206.121094 548.363281 207.082031 547.886719 208.015625 547.347656 C 208.949219 546.808594 209.84375 546.210938 210.699219 545.558594 C 211.554688 544.902344 212.363281 544.191406 213.125 543.429688 C 213.886719 542.667969 214.59375 541.859375 215.25 541.007812 C 215.90625 540.152344 216.503906 539.257812 217.042969 538.324219 L 258.359375 466.769531 C 258.898438 465.835938 259.496094 464.941406 260.152344 464.085938 C 260.808594 463.230469 261.515625 462.421875 262.28125 461.660156 C 263.042969 460.898438 263.851562 460.1875 264.703125 459.53125 C 265.558594 458.875 266.453125 458.277344 267.386719 457.738281 C 268.320312 457.199219 269.285156 456.726562 270.28125 456.3125 C 271.277344 455.898438 272.292969 455.554688 273.335938 455.277344 C 274.375 454.996094 275.429688 454.785156 276.5 454.644531 C 277.566406 454.503906 278.640625 454.433594 279.71875 454.433594 C 280.796875 454.433594 281.867188 454.503906 282.9375 454.644531 C 284.003906 454.785156 285.058594 454.996094 286.101562 455.277344 C 287.140625 455.554688 288.160156 455.898438 289.15625 456.3125 C 290.152344 456.726562 291.117188 457.199219 292.050781 457.738281 C 292.980469 458.277344 293.875 458.875 294.730469 459.53125 C 295.585938 460.1875 296.394531 460.898438 297.15625 461.660156 C 297.917969 462.421875 298.628906 463.230469 299.28125 464.085938 C 299.9375 464.941406 300.535156 465.835938 301.074219 466.769531 L 342.382812 538.316406 C 342.921875 539.25 343.519531 540.144531 344.175781 541 C 344.832031 541.855469 345.539062 542.664062 346.300781 543.425781 C 347.0625 544.1875 347.871094 544.894531 348.726562 545.550781 C 349.582031 546.207031 350.476562 546.804688 351.410156 547.34375 C 352.34375 547.882812 353.308594 548.359375 354.300781 548.773438 C 355.296875 549.1875 356.316406 549.53125 357.355469 549.8125 C 358.398438 550.089844 359.453125 550.300781 360.519531 550.441406 C 361.589844 550.582031 362.664062 550.652344 363.738281 550.652344 L 446.371094 550.652344 C 446.910156 550.652344 447.449219 550.636719 447.984375 550.601562 C 448.523438 550.566406 449.058594 550.511719 449.589844 550.441406 C 450.125 550.371094 450.65625 550.285156 451.183594 550.179688 C 451.710938 550.074219 452.234375 549.953125 452.753906 549.8125 C 453.273438 549.671875 453.789062 549.515625 454.300781 549.34375 C 454.808594 549.171875 455.3125 548.980469 455.808594 548.773438 C 456.304688 548.570312 456.796875 548.347656 457.277344 548.109375 C 457.761719 547.871094 458.234375 547.617188 458.703125 547.347656 C 459.167969 547.078125 459.625 546.792969 460.074219 546.496094 C 460.519531 546.195312 460.957031 545.882812 461.382812 545.554688 C 461.8125 545.226562 462.226562 544.886719 462.632812 544.53125 C 463.035156 544.175781 463.429688 543.808594 463.808594 543.425781 C 464.191406 543.046875 464.558594 542.652344 464.910156 542.25 C 465.265625 541.84375 465.609375 541.429688 465.9375 541.003906 C 466.261719 540.574219 466.578125 540.136719 466.875 539.691406 C 467.175781 539.242188 467.457031 538.785156 467.726562 538.320312 C 467.996094 537.855469 468.25 537.378906 468.488281 536.898438 C 468.726562 536.414062 468.949219 535.925781 469.152344 535.425781 C 469.359375 534.929688 469.550781 534.425781 469.722656 533.917969 C 469.894531 533.40625 470.050781 532.890625 470.191406 532.371094 C 470.332031 531.851562 470.453125 531.328125 470.558594 530.800781 C 470.664062 530.273438 470.75 529.742188 470.820312 529.207031 C 470.890625 528.675781 470.945312 528.140625 470.980469 527.601562 C 471.015625 527.066406 471.03125 526.527344 471.03125 525.988281 C 471.03125 525.453125 471.015625 524.914062 470.980469 524.375 C 470.945312 523.839844 470.890625 523.304688 470.820312 522.769531 C 470.75 522.238281 470.664062 521.707031 470.558594 521.179688 C 470.453125 520.652344 470.332031 520.125 470.191406 519.605469 C 470.054688 519.085938 469.898438 518.570312 469.722656 518.0625 C 469.550781 517.554688 469.363281 517.050781 469.15625 516.550781 C 468.949219 516.054688 468.726562 515.566406 468.488281 515.082031 C 468.25 514.597656 468 514.125 467.730469 513.660156 L 301.074219 225.015625 C 300.535156 224.082031 299.9375 223.1875 299.28125 222.332031 C 298.628906 221.476562 297.917969 220.667969 297.15625 219.90625 C 296.394531 219.144531 295.585938 218.433594 294.730469 217.777344 C 293.875 217.121094 292.980469 216.527344 292.050781 215.988281 C 291.117188 215.449219 290.152344 214.972656 289.15625 214.558594 C 288.160156 214.148438 287.140625 213.800781 286.101562 213.523438 C 285.058594 213.242188 284.003906 213.035156 282.9375 212.894531 C 281.867188 212.753906 280.796875 212.683594 279.71875 212.683594 C 278.640625 212.683594 277.566406 212.753906 276.5 212.894531 C 275.429688 213.035156 274.375 213.242188 273.335938 213.523438 C 272.292969 213.800781 271.277344 214.148438 270.28125 214.558594 C 269.285156 214.972656 268.320312 215.449219 267.386719 215.988281 C 266.453125 216.527344 265.558594 217.121094 264.703125 217.777344 C 263.851562 218.433594 263.042969 219.144531 262.28125 219.90625 C 261.515625 220.667969 260.808594 221.476562 260.152344 222.332031 C 259.496094 223.1875 258.898438 224.082031 258.359375 225.015625 Z M 258.359375 225.015625 " fill-opacity="1" fill-rule="nonzero"/></g><g clip-path="url(#6da87e75ce)"><path fill="#f4f4f4" d="M 180.546875 511.359375 L 191.480469 489.546875 L 217.738281 437.164062 L 249.5 373.804688 L 276.949219 319.050781 C 281.382812 310.207031 286.082031 301.453125 290.265625 292.488281 C 290.320312 292.367188 290.386719 292.246094 290.445312 292.125 L 269.457031 292.125 L 280.390625 313.9375 L 306.648438 366.320312 L 338.410156 429.679688 L 365.859375 484.433594 L 374.855469 502.382812 C 376.257812 505.179688 377.445312 508.378906 379.171875 510.996094 C 379.242188 511.113281 379.300781 511.234375 379.355469 511.359375 C 379.914062 512.476562 383.53125 513.035156 384.355469 513.175781 C 387.140625 513.632812 389.933594 513.734375 392.742188 513.480469 C 394.550781 513.3125 401.898438 512.839844 400.34375 509.742188 L 389.410156 487.929688 L 363.152344 435.550781 L 331.390625 372.1875 L 303.941406 317.433594 L 294.945312 299.488281 C 293.558594 296.714844 292.394531 293.429688 290.628906 290.871094 C 290.558594 290.753906 290.5 290.636719 290.445312 290.511719 C 289.910156 289.445312 287.527344 289.144531 286.546875 288.929688 C 284.371094 288.46875 282.171875 288.25 279.949219 288.277344 C 278.109375 288.289062 276.277344 288.425781 274.457031 288.691406 C 273.640625 288.820312 270.011719 289.40625 269.457031 290.511719 L 258.523438 312.324219 L 232.265625 364.703125 L 200.5 428.0625 L 173.054688 482.820312 C 168.617188 491.671875 164.140625 500.507812 159.738281 509.378906 C 159.679688 509.503906 159.617188 509.621094 159.558594 509.742188 C 158 512.847656 165.441406 513.371094 167.160156 513.484375 C 169.96875 513.730469 172.761719 513.628906 175.546875 513.175781 C 176.828125 512.9375 179.902344 512.648438 180.546875 511.359375 Z M 180.546875 511.359375 " fill-opacity="1" fill-rule="nonzero"/></g><g transform="matrix(1, 0, 0, 1, 553, 170)"><g clip-path="url(#279f0e1da2)"><g fill="#000000" fill-opacity="1"><g transform="translate(0.988473, 182.843568)"><g><path d="M 87.25 -49.171875 L 66.453125 -103.0625 C 65.835938 -104.664062 65.191406 -106.53125 64.515625 -108.65625 C 63.835938 -110.78125 63.191406 -113.039062 62.578125 -115.4375 C 61.285156 -110.445312 59.957031 -106.289062 58.59375 -102.96875 L 37.796875 -49.171875 Z M 124.59375 0 L 110.734375 0 C 109.128906 0 107.832031 -0.398438 106.84375 -1.203125 C 105.863281 -2.003906 105.125 -3.019531 104.625 -4.25 L 92.25 -36.234375 L 32.8125 -36.234375 L 20.421875 -4.25 C 20.054688 -3.144531 19.347656 -2.160156 18.296875 -1.296875 C 17.253906 -0.429688 15.960938 0 14.421875 0 L 0.546875 0 L 53.515625 -132.453125 L 71.640625 -132.453125 Z M 124.59375 0 "/></g></g></g><g fill="#000000" fill-opacity="1"><g transform="translate(115.413745, 182.843568)"><g><path d="M 67.5625 -78.203125 C 66.820312 -76.835938 65.679688 -76.15625 64.140625 -76.15625 C 63.222656 -76.15625 62.175781 -76.492188 61 -77.171875 C 59.832031 -77.859375 58.398438 -78.613281 56.703125 -79.4375 C 55.003906 -80.269531 52.984375 -81.039062 50.640625 -81.75 C 48.304688 -82.457031 45.535156 -82.8125 42.328125 -82.8125 C 39.554688 -82.8125 37.0625 -82.457031 34.84375 -81.75 C 32.625 -81.039062 30.726562 -80.070312 29.15625 -78.84375 C 27.582031 -77.613281 26.378906 -76.179688 25.546875 -74.546875 C 24.722656 -72.910156 24.3125 -71.140625 24.3125 -69.234375 C 24.3125 -66.828125 25.003906 -64.820312 26.390625 -63.21875 C 27.773438 -61.613281 29.609375 -60.226562 31.890625 -59.0625 C 34.171875 -57.894531 36.757812 -56.863281 39.65625 -55.96875 C 42.550781 -55.070312 45.519531 -54.113281 48.5625 -53.09375 C 51.613281 -52.082031 54.585938 -50.957031 57.484375 -49.71875 C 60.378906 -48.488281 62.96875 -46.945312 65.25 -45.09375 C 67.53125 -43.25 69.363281 -40.988281 70.75 -38.3125 C 72.132812 -35.632812 72.828125 -32.414062 72.828125 -28.65625 C 72.828125 -24.34375 72.054688 -20.351562 70.515625 -16.6875 C 68.984375 -13.019531 66.707031 -9.84375 63.6875 -7.15625 C 60.664062 -4.476562 56.96875 -2.367188 52.59375 -0.828125 C 48.21875 0.710938 43.164062 1.484375 37.4375 1.484375 C 30.90625 1.484375 24.988281 0.421875 19.6875 -1.703125 C 14.382812 -3.835938 9.882812 -6.566406 6.1875 -9.890625 L 10.078125 -16.171875 C 10.566406 -16.972656 11.148438 -17.585938 11.828125 -18.015625 C 12.503906 -18.453125 13.367188 -18.671875 14.421875 -18.671875 C 15.523438 -18.671875 16.691406 -18.238281 17.921875 -17.375 C 19.160156 -16.507812 20.65625 -15.550781 22.40625 -14.5 C 24.164062 -13.457031 26.304688 -12.503906 28.828125 -11.640625 C 31.359375 -10.785156 34.503906 -10.359375 38.265625 -10.359375 C 41.472656 -10.359375 44.273438 -10.769531 46.671875 -11.59375 C 49.078125 -12.425781 51.082031 -13.550781 52.6875 -14.96875 C 54.289062 -16.382812 55.476562 -18.015625 56.25 -19.859375 C 57.019531 -21.710938 57.40625 -23.6875 57.40625 -25.78125 C 57.40625 -28.375 56.707031 -30.515625 55.3125 -32.203125 C 53.925781 -33.898438 52.09375 -35.347656 49.8125 -36.546875 C 47.539062 -37.753906 44.941406 -38.800781 42.015625 -39.6875 C 39.085938 -40.582031 36.097656 -41.523438 33.046875 -42.515625 C 29.992188 -43.503906 27.003906 -44.628906 24.078125 -45.890625 C 21.148438 -47.148438 18.546875 -48.734375 16.265625 -50.640625 C 13.984375 -52.554688 12.148438 -54.914062 10.765625 -57.71875 C 9.378906 -60.519531 8.6875 -63.925781 8.6875 -67.9375 C 8.6875 -71.507812 9.425781 -74.941406 10.90625 -78.234375 C 12.382812 -81.535156 14.539062 -84.429688 17.375 -86.921875 C 20.207031 -89.421875 23.6875 -91.410156 27.8125 -92.890625 C 31.945312 -94.367188 36.664062 -95.109375 41.96875 -95.109375 C 48.125 -95.109375 53.648438 -94.132812 58.546875 -92.1875 C 63.453125 -90.25 67.691406 -87.585938 71.265625 -84.203125 Z M 67.5625 -78.203125 "/></g></g></g><g fill="#000000" fill-opacity="1"><g transform="translate(184.734326, 182.843568)"><g><path d="M 41.78125 1.484375 C 34.382812 1.484375 28.695312 -0.578125 24.71875 -4.703125 C 20.75 -8.835938 18.765625 -14.785156 18.765625 -22.546875 L 18.765625 -79.859375 L 7.484375 -79.859375 C 6.503906 -79.859375 5.671875 -80.148438 4.984375 -80.734375 C 4.304688 -81.316406 3.96875 -82.226562 3.96875 -83.46875 L 3.96875 -90.03125 L 19.3125 -91.96875 L 23.109375 -120.890625 C 23.296875 -121.816406 23.710938 -122.570312 24.359375 -123.15625 C 25.003906 -123.75 25.847656 -124.046875 26.890625 -124.046875 L 35.21875 -124.046875 L 35.21875 -91.78125 L 62.296875 -91.78125 L 62.296875 -79.859375 L 35.21875 -79.859375 L 35.21875 -23.65625 C 35.21875 -19.71875 36.171875 -16.789062 38.078125 -14.875 C 39.992188 -12.96875 42.457031 -12.015625 45.46875 -12.015625 C 47.195312 -12.015625 48.691406 -12.242188 49.953125 -12.703125 C 51.222656 -13.171875 52.316406 -13.679688 53.234375 -14.234375 C 54.160156 -14.785156 54.945312 -15.289062 55.59375 -15.75 C 56.238281 -16.21875 56.8125 -16.453125 57.3125 -16.453125 C 58.164062 -16.453125 58.929688 -15.925781 59.609375 -14.875 L 64.421875 -7.03125 C 61.585938 -4.375 58.164062 -2.289062 54.15625 -0.78125 C 50.15625 0.726562 46.03125 1.484375 41.78125 1.484375 Z M 41.78125 1.484375 "/></g></g></g><g fill="#000000" fill-opacity="1"><g transform="translate(240.283208, 182.843568)"><g><path d="M 28.65625 -74.875 C 31.613281 -81.28125 35.25 -86.285156 39.5625 -89.890625 C 43.875 -93.492188 49.140625 -95.296875 55.359375 -95.296875 C 57.335938 -95.296875 59.234375 -95.078125 61.046875 -94.640625 C 62.867188 -94.210938 64.488281 -93.535156 65.90625 -92.609375 L 64.703125 -80.328125 C 64.328125 -78.785156 63.398438 -78.015625 61.921875 -78.015625 C 61.066406 -78.015625 59.804688 -78.195312 58.140625 -78.5625 C 56.472656 -78.9375 54.59375 -79.125 52.5 -79.125 C 49.539062 -79.125 46.90625 -78.691406 44.59375 -77.828125 C 42.28125 -76.960938 40.210938 -75.679688 38.390625 -73.984375 C 36.578125 -72.296875 34.945312 -70.203125 33.5 -67.703125 C 32.050781 -65.210938 30.742188 -62.363281 29.578125 -59.15625 L 29.578125 0 L 13.03125 0 L 13.03125 -93.625 L 22.453125 -93.625 C 24.242188 -93.625 25.476562 -93.285156 26.15625 -92.609375 C 26.832031 -91.929688 27.296875 -90.765625 27.546875 -89.109375 Z M 28.65625 -74.875 "/></g></g></g><g fill="#000000" fill-opacity="1"><g transform="translate(296.848795, 182.843568)"><g><path d="M 52.5 -95.109375 C 59.34375 -95.109375 65.503906 -93.96875 70.984375 -91.6875 C 76.472656 -89.40625 81.15625 -86.171875 85.03125 -81.984375 C 88.914062 -77.796875 91.890625 -72.726562 93.953125 -66.78125 C 96.015625 -60.832031 97.046875 -54.191406 97.046875 -46.859375 C 97.046875 -39.460938 96.015625 -32.804688 93.953125 -26.890625 C 91.890625 -20.984375 88.914062 -15.929688 85.03125 -11.734375 C 81.15625 -7.546875 76.472656 -4.328125 70.984375 -2.078125 C 65.503906 0.171875 59.34375 1.296875 52.5 1.296875 C 45.59375 1.296875 39.382812 0.171875 33.875 -2.078125 C 28.363281 -4.328125 23.664062 -7.546875 19.78125 -11.734375 C 15.894531 -15.929688 12.921875 -20.984375 10.859375 -26.890625 C 8.796875 -32.804688 7.765625 -39.460938 7.765625 -46.859375 C 7.765625 -54.191406 8.796875 -60.832031 10.859375 -66.78125 C 12.921875 -72.726562 15.894531 -77.796875 19.78125 -81.984375 C 23.664062 -86.171875 28.363281 -89.40625 33.875 -91.6875 C 39.382812 -93.96875 45.59375 -95.109375 52.5 -95.109375 Z M 52.5 -11.546875 C 61.738281 -11.546875 68.640625 -14.640625 73.203125 -20.828125 C 77.765625 -27.023438 80.046875 -35.671875 80.046875 -46.765625 C 80.046875 -57.921875 77.765625 -66.609375 73.203125 -72.828125 C 68.640625 -79.054688 61.738281 -82.171875 52.5 -82.171875 C 47.8125 -82.171875 43.726562 -81.367188 40.25 -79.765625 C 36.769531 -78.160156 33.875 -75.847656 31.5625 -72.828125 C 29.25 -69.816406 27.519531 -66.109375 26.375 -61.703125 C 25.238281 -57.296875 24.671875 -52.316406 24.671875 -46.765625 C 24.671875 -35.671875 26.96875 -27.023438 31.5625 -20.828125 C 36.15625 -14.640625 43.132812 -11.546875 52.5 -11.546875 Z M 52.5 -11.546875 "/></g></g></g><g fill="#000000" fill-opacity="1"><g transform="translate(0.988473, 347.008888)"><g><path d="M 84.671875 -111.75 C 84.109375 -110.820312 83.503906 -110.125 82.859375 -109.65625 C 82.210938 -109.195312 81.425781 -108.96875 80.5 -108.96875 C 79.457031 -108.96875 78.226562 -109.488281 76.8125 -110.53125 C 75.394531 -111.582031 73.625 -112.738281 71.5 -114 C 69.375 -115.269531 66.816406 -116.425781 63.828125 -117.46875 C 60.835938 -118.519531 57.21875 -119.046875 52.96875 -119.046875 C 48.957031 -119.046875 45.425781 -118.503906 42.375 -117.421875 C 39.320312 -116.347656 36.765625 -114.882812 34.703125 -113.03125 C 32.640625 -111.1875 31.082031 -109.015625 30.03125 -106.515625 C 28.988281 -104.023438 28.46875 -101.332031 28.46875 -98.4375 C 28.46875 -94.738281 29.375 -91.671875 31.1875 -89.234375 C 33.007812 -86.804688 35.414062 -84.726562 38.40625 -83 C 41.394531 -81.269531 44.78125 -79.773438 48.5625 -78.515625 C 52.351562 -77.253906 56.234375 -75.945312 60.203125 -74.59375 C 64.179688 -73.238281 68.066406 -71.710938 71.859375 -70.015625 C 75.648438 -68.316406 79.039062 -66.171875 82.03125 -63.578125 C 85.019531 -60.992188 87.421875 -57.820312 89.234375 -54.0625 C 91.054688 -50.3125 91.96875 -45.691406 91.96875 -40.203125 C 91.96875 -34.410156 90.976562 -28.972656 89 -23.890625 C 87.03125 -18.804688 84.148438 -14.382812 80.359375 -10.625 C 76.578125 -6.863281 71.925781 -3.90625 66.40625 -1.75 C 60.894531 0.40625 54.625 1.484375 47.59375 1.484375 C 38.96875 1.484375 31.144531 -0.0703125 24.125 -3.1875 C 17.101562 -6.300781 11.09375 -10.507812 6.09375 -15.8125 L 11.28125 -24.3125 C 11.769531 -24.988281 12.367188 -25.554688 13.078125 -26.015625 C 13.785156 -26.484375 14.570312 -26.71875 15.4375 -26.71875 C 16.238281 -26.71875 17.144531 -26.390625 18.15625 -25.734375 C 19.175781 -25.085938 20.332031 -24.269531 21.625 -23.28125 C 22.914062 -22.300781 24.394531 -21.222656 26.0625 -20.046875 C 27.726562 -18.878906 29.625 -17.800781 31.75 -16.8125 C 33.875 -15.832031 36.289062 -15.019531 39 -14.375 C 41.71875 -13.726562 44.769531 -13.40625 48.15625 -13.40625 C 52.40625 -13.40625 56.191406 -13.988281 59.515625 -15.15625 C 62.847656 -16.332031 65.671875 -17.984375 67.984375 -20.109375 C 70.296875 -22.234375 72.066406 -24.773438 73.296875 -27.734375 C 74.523438 -30.691406 75.140625 -33.988281 75.140625 -37.625 C 75.140625 -41.625 74.226562 -44.898438 72.40625 -47.453125 C 70.59375 -50.015625 68.207031 -52.15625 65.25 -53.875 C 62.289062 -55.601562 58.898438 -57.066406 55.078125 -58.265625 C 51.265625 -59.472656 47.382812 -60.707031 43.4375 -61.96875 C 39.5 -63.238281 35.617188 -64.703125 31.796875 -66.359375 C 27.972656 -68.023438 24.582031 -70.179688 21.625 -72.828125 C 18.664062 -75.484375 16.273438 -78.796875 14.453125 -82.765625 C 12.640625 -86.742188 11.734375 -91.660156 11.734375 -97.515625 C 11.734375 -102.191406 12.640625 -106.71875 14.453125 -111.09375 C 16.273438 -115.46875 18.925781 -119.347656 22.40625 -122.734375 C 25.894531 -126.128906 30.179688 -128.84375 35.265625 -130.875 C 40.347656 -132.914062 46.1875 -133.9375 52.78125 -133.9375 C 60.175781 -133.9375 66.90625 -132.765625 72.96875 -130.421875 C 79.039062 -128.078125 84.390625 -124.6875 89.015625 -120.25 Z M 84.671875 -111.75 "/></g></g></g><g fill="#000000" fill-opacity="1"><g transform="translate(90.550732, 347.008888)"><g><path d="M 41.78125 1.484375 C 34.382812 1.484375 28.695312 -0.578125 24.71875 -4.703125 C 20.75 -8.835938 18.765625 -14.785156 18.765625 -22.546875 L 18.765625 -79.859375 L 7.484375 -79.859375 C 6.503906 -79.859375 5.671875 -80.148438 4.984375 -80.734375 C 4.304688 -81.316406 3.96875 -82.226562 3.96875 -83.46875 L 3.96875 -90.03125 L 19.3125 -91.96875 L 23.109375 -120.890625 C 23.296875 -121.816406 23.710938 -122.570312 24.359375 -123.15625 C 25.003906 -123.75 25.847656 -124.046875 26.890625 -124.046875 L 35.21875 -124.046875 L 35.21875 -91.78125 L 62.296875 -91.78125 L 62.296875 -79.859375 L 35.21875 -79.859375 L 35.21875 -23.65625 C 35.21875 -19.71875 36.171875 -16.789062 38.078125 -14.875 C 39.992188 -12.96875 42.457031 -12.015625 45.46875 -12.015625 C 47.195312 -12.015625 48.691406 -12.242188 49.953125 -12.703125 C 51.222656 -13.171875 52.316406 -13.679688 53.234375 -14.234375 C 54.160156 -14.785156 54.945312 -15.289062 55.59375 -15.75 C 56.238281 -16.21875 56.8125 -16.453125 57.3125 -16.453125 C 58.164062 -16.453125 58.929688 -15.925781 59.609375 -14.875 L 64.421875 -7.03125 C 61.585938 -4.375 58.164062 -2.289062 54.15625 -0.78125 C 50.15625 0.726562 46.03125 1.484375 41.78125 1.484375 Z M 41.78125 1.484375 "/></g></g></g><g fill="#000000" fill-opacity="1"><g transform="translate(146.099614, 347.008888)"><g><path d="M 63.78125 -42.140625 C 56.195312 -41.898438 49.738281 -41.300781 44.40625 -40.34375 C 39.082031 -39.382812 34.738281 -38.132812 31.375 -36.59375 C 28.019531 -35.0625 25.585938 -33.242188 24.078125 -31.140625 C 22.566406 -29.046875 21.8125 -26.707031 21.8125 -24.125 C 21.8125 -21.65625 22.210938 -19.523438 23.015625 -17.734375 C 23.816406 -15.953125 24.910156 -14.488281 26.296875 -13.34375 C 27.679688 -12.207031 29.3125 -11.378906 31.1875 -10.859375 C 33.070312 -10.335938 35.09375 -10.078125 37.25 -10.078125 C 40.144531 -10.078125 42.789062 -10.367188 45.1875 -10.953125 C 47.59375 -11.535156 49.859375 -12.378906 51.984375 -13.484375 C 54.117188 -14.597656 56.15625 -15.925781 58.09375 -17.46875 C 60.03125 -19.007812 61.925781 -20.765625 63.78125 -22.734375 Z M 10.625 -80.40625 C 15.800781 -85.40625 21.378906 -89.132812 27.359375 -91.59375 C 33.335938 -94.0625 39.960938 -95.296875 47.234375 -95.296875 C 52.472656 -95.296875 57.125 -94.429688 61.1875 -92.703125 C 65.25 -90.984375 68.664062 -88.582031 71.4375 -85.5 C 74.21875 -82.414062 76.316406 -78.6875 77.734375 -74.3125 C 79.148438 -69.9375 79.859375 -65.128906 79.859375 -59.890625 L 79.859375 0 L 72.5625 0 C 70.957031 0 69.722656 -0.257812 68.859375 -0.78125 C 67.992188 -1.3125 67.316406 -2.34375 66.828125 -3.875 L 64.984375 -12.75 C 62.515625 -10.46875 60.109375 -8.445312 57.765625 -6.6875 C 55.421875 -4.9375 52.953125 -3.460938 50.359375 -2.265625 C 47.773438 -1.066406 45.019531 -0.144531 42.09375 0.5 C 39.175781 1.15625 35.925781 1.484375 32.34375 1.484375 C 28.707031 1.484375 25.285156 0.972656 22.078125 -0.046875 C 18.878906 -1.066406 16.09375 -2.59375 13.71875 -4.625 C 11.351562 -6.65625 9.476562 -9.222656 8.09375 -12.328125 C 6.707031 -15.441406 6.015625 -19.128906 6.015625 -23.390625 C 6.015625 -27.085938 7.03125 -30.644531 9.0625 -34.0625 C 11.09375 -37.476562 14.382812 -40.507812 18.9375 -43.15625 C 23.5 -45.8125 29.445312 -47.984375 36.78125 -49.671875 C 44.113281 -51.367188 53.113281 -52.34375 63.78125 -52.59375 L 63.78125 -59.890625 C 63.78125 -67.160156 62.207031 -72.660156 59.0625 -76.390625 C 55.914062 -80.117188 51.328125 -81.984375 45.296875 -81.984375 C 41.222656 -81.984375 37.816406 -81.472656 35.078125 -80.453125 C 32.335938 -79.441406 29.960938 -78.300781 27.953125 -77.03125 C 25.953125 -75.769531 24.226562 -74.628906 22.78125 -73.609375 C 21.332031 -72.597656 19.898438 -72.09375 18.484375 -72.09375 C 17.378906 -72.09375 16.425781 -72.382812 15.625 -72.96875 C 14.820312 -73.550781 14.144531 -74.273438 13.59375 -75.140625 Z M 10.625 -80.40625 "/></g></g></g><g fill="#000000" fill-opacity="1"><g transform="translate(227.25092, 347.008888)"><g><path d="M 28.65625 -74.875 C 31.613281 -81.28125 35.25 -86.285156 39.5625 -89.890625 C 43.875 -93.492188 49.140625 -95.296875 55.359375 -95.296875 C 57.335938 -95.296875 59.234375 -95.078125 61.046875 -94.640625 C 62.867188 -94.210938 64.488281 -93.535156 65.90625 -92.609375 L 64.703125 -80.328125 C 64.328125 -78.785156 63.398438 -78.015625 61.921875 -78.015625 C 61.066406 -78.015625 59.804688 -78.195312 58.140625 -78.5625 C 56.472656 -78.9375 54.59375 -79.125 52.5 -79.125 C 49.539062 -79.125 46.90625 -78.691406 44.59375 -77.828125 C 42.28125 -76.960938 40.210938 -75.679688 38.390625 -73.984375 C 36.578125 -72.296875 34.945312 -70.203125 33.5 -67.703125 C 32.050781 -65.210938 30.742188 -62.363281 29.578125 -59.15625 L 29.578125 0 L 13.03125 0 L 13.03125 -93.625 L 22.453125 -93.625 C 24.242188 -93.625 25.476562 -93.285156 26.15625 -92.609375 C 26.832031 -91.929688 27.296875 -90.765625 27.546875 -89.109375 Z M 28.65625 -74.875 "/></g></g></g><g fill="#000000" fill-opacity="1"><g transform="translate(283.816521, 347.008888)"><g><path d="M 41.78125 1.484375 C 34.382812 1.484375 28.695312 -0.578125 24.71875 -4.703125 C 20.75 -8.835938 18.765625 -14.785156 18.765625 -22.546875 L 18.765625 -79.859375 L 7.484375 -79.859375 C 6.503906 -79.859375 5.671875 -80.148438 4.984375 -80.734375 C 4.304688 -81.316406 3.96875 -82.226562 3.96875 -83.46875 L 3.96875 -90.03125 L 19.3125 -91.96875 L 23.109375 -120.890625 C 23.296875 -121.816406 23.710938 -122.570312 24.359375 -123.15625 C 25.003906 -123.75 25.847656 -124.046875 26.890625 -124.046875 L 35.21875 -124.046875 L 35.21875 -91.78125 L 62.296875 -91.78125 L 62.296875 -79.859375 L 35.21875 -79.859375 L 35.21875 -23.65625 C 35.21875 -19.71875 36.171875 -16.789062 38.078125 -14.875 C 39.992188 -12.96875 42.457031 -12.015625 45.46875 -12.015625 C 47.195312 -12.015625 48.691406 -12.242188 49.953125 -12.703125 C 51.222656 -13.171875 52.316406 -13.679688 53.234375 -14.234375 C 54.160156 -14.785156 54.945312 -15.289062 55.59375 -15.75 C 56.238281 -16.21875 56.8125 -16.453125 57.3125 -16.453125 C 58.164062 -16.453125 58.929688 -15.925781 59.609375 -14.875 L 64.421875 -7.03125 C 61.585938 -4.375 58.164062 -2.289062 54.15625 -0.78125 C 50.15625 0.726562 46.03125 1.484375 41.78125 1.484375 Z M 41.78125 1.484375 "/></g></g></g><g fill="#000000" fill-opacity="1"><g transform="translate(339.365389, 347.008888)"><g><path d="M 75.703125 -57.03125 C 75.703125 -60.851562 75.160156 -64.347656 74.078125 -67.515625 C 73.003906 -70.691406 71.429688 -73.4375 69.359375 -75.75 C 67.296875 -78.0625 64.785156 -79.847656 61.828125 -81.109375 C 58.878906 -82.367188 55.523438 -83 51.765625 -83 C 43.867188 -83 37.625 -80.703125 33.03125 -76.109375 C 28.445312 -71.523438 25.601562 -65.164062 24.5 -57.03125 Z M 89.015625 -13.125 C 86.972656 -10.65625 84.535156 -8.507812 81.703125 -6.6875 C 78.867188 -4.875 75.832031 -3.382812 72.59375 -2.21875 C 69.363281 -1.050781 66.023438 -0.175781 62.578125 0.40625 C 59.128906 1 55.707031 1.296875 52.3125 1.296875 C 45.84375 1.296875 39.878906 0.203125 34.421875 -1.984375 C 28.972656 -4.171875 24.257812 -7.375 20.28125 -11.59375 C 16.3125 -15.820312 13.21875 -21.046875 11 -27.265625 C 8.78125 -33.492188 7.671875 -40.640625 7.671875 -48.703125 C 7.671875 -55.242188 8.671875 -61.347656 10.671875 -67.015625 C 12.671875 -72.679688 15.550781 -77.59375 19.3125 -81.75 C 23.070312 -85.914062 27.660156 -89.179688 33.078125 -91.546875 C 38.503906 -93.921875 44.609375 -95.109375 51.390625 -95.109375 C 56.992188 -95.109375 62.179688 -94.164062 66.953125 -92.28125 C 71.734375 -90.40625 75.863281 -87.695312 79.34375 -84.15625 C 82.832031 -80.613281 85.5625 -76.238281 87.53125 -71.03125 C 89.5 -65.820312 90.484375 -59.890625 90.484375 -53.234375 C 90.484375 -50.648438 90.207031 -48.925781 89.65625 -48.0625 C 89.101562 -47.195312 88.054688 -46.765625 86.515625 -46.765625 L 23.9375 -46.765625 C 24.125 -40.847656 24.941406 -35.703125 26.390625 -31.328125 C 27.835938 -26.953125 29.851562 -23.300781 32.4375 -20.375 C 35.03125 -17.445312 38.113281 -15.257812 41.6875 -13.8125 C 45.257812 -12.363281 49.265625 -11.640625 53.703125 -11.640625 C 57.828125 -11.640625 61.382812 -12.117188 64.375 -13.078125 C 67.363281 -14.035156 69.9375 -15.066406 72.09375 -16.171875 C 74.25 -17.285156 76.050781 -18.316406 77.5 -19.265625 C 78.945312 -20.222656 80.195312 -20.703125 81.25 -20.703125 C 82.601562 -20.703125 83.648438 -20.179688 84.390625 -19.140625 Z M 89.015625 -13.125 "/></g></g></g><g fill="#000000" fill-opacity="1"><g transform="translate(426.247248, 347.008888)"><g><path d="M 28.65625 -74.875 C 31.613281 -81.28125 35.25 -86.285156 39.5625 -89.890625 C 43.875 -93.492188 49.140625 -95.296875 55.359375 -95.296875 C 57.335938 -95.296875 59.234375 -95.078125 61.046875 -94.640625 C 62.867188 -94.210938 64.488281 -93.535156 65.90625 -92.609375 L 64.703125 -80.328125 C 64.328125 -78.785156 63.398438 -78.015625 61.921875 -78.015625 C 61.066406 -78.015625 59.804688 -78.195312 58.140625 -78.5625 C 56.472656 -78.9375 54.59375 -79.125 52.5 -79.125 C 49.539062 -79.125 46.90625 -78.691406 44.59375 -77.828125 C 42.28125 -76.960938 40.210938 -75.679688 38.390625 -73.984375 C 36.578125 -72.296875 34.945312 -70.203125 33.5 -67.703125 C 32.050781 -65.210938 30.742188 -62.363281 29.578125 -59.15625 L 29.578125 0 L 13.03125 0 L 13.03125 -93.625 L 22.453125 -93.625 C 24.242188 -93.625 25.476562 -93.285156 26.15625 -92.609375 C 26.832031 -91.929688 27.296875 -90.765625 27.546875 -89.109375 Z M 28.65625 -74.875 "/></g></g></g></g></g></svg>